<svg width="36" height="25" viewBox="0 0 36 25" fill="none" xmlns="http://www.w3.org/2000/svg">
<path d="M35.2885 11.6682C31.9933 5.23876 25.4697 0.888672 18 0.888672C10.5303 0.888672 4.00483 5.2418 0.711425 11.6688C0.572423 11.9438 0.5 12.2475 0.5 12.5556C0.5 12.8637 0.572423 13.1675 0.711425 13.4425C4.00665 19.8719 10.5303 24.222 18 24.222C25.4697 24.222 31.9951 19.8689 35.2885 13.4419C35.4275 13.1669 35.4999 12.8631 35.4999 12.555C35.4999 12.2469 35.4275 11.9431 35.2885 11.6682ZM18 21.3053C16.2694 21.3053 14.5777 20.7922 13.1387 19.8307C11.6998 18.8692 10.5783 17.5027 9.91602 15.9038C9.25375 14.305 9.08047 12.5456 9.41809 10.8483C9.75572 9.15096 10.5891 7.59186 11.8128 6.36815C13.0365 5.14444 14.5956 4.31109 16.2929 3.97347C17.9903 3.63585 19.7496 3.80913 21.3484 4.47139C22.9473 5.13366 24.3139 6.25517 25.2753 7.6941C26.2368 9.13303 26.75 10.8248 26.75 12.5553C26.7505 13.7046 26.5246 14.8426 26.0851 15.9045C25.6455 16.9663 25.001 17.9311 24.1884 18.7438C23.3758 19.5564 22.411 20.2009 21.3491 20.6404C20.2873 21.08 19.1492 21.3059 18 21.3053ZM18 6.722C17.4793 6.72928 16.962 6.80674 16.462 6.9523C16.8741 7.51234 17.0719 8.20154 17.0195 8.89489C16.967 9.58824 16.6678 10.2398 16.1761 10.7315C15.6845 11.2232 15.0329 11.5224 14.3395 11.5748C13.6462 11.6273 12.957 11.4295 12.3969 11.0174C12.078 12.1923 12.1356 13.4377 12.5615 14.5782C12.9875 15.7187 13.7603 16.6969 14.7713 17.3751C15.7824 18.0533 16.9806 18.3975 18.1974 18.359C19.4143 18.3206 20.5884 17.9015 21.5546 17.1608C22.5208 16.4201 23.2303 15.3951 23.5835 14.23C23.9366 13.0649 23.9154 11.8184 23.523 10.6659C23.1305 9.51348 22.3866 8.5131 21.3958 7.80561C20.4051 7.09812 19.2174 6.71914 18 6.722Z" fill="#0098C7"/>
</svg>
