<svg width="36" height="32" viewBox="0 0 36 32" fill="none" xmlns="http://www.w3.org/2000/svg">
<path d="M30.0009 0L35.5 9.72222H29.3568L25.1519 0H30.0009ZM22.2231 0L26.428 9.72222H9.57205L13.7769 0H22.2231ZM5.99913 0H10.8481L6.64323 9.72222H0.5L5.99913 0ZM0.5 11.6667H6.61892L14.0929 26.9609C14.184 27.1493 13.9288 27.3194 13.7891 27.1615L0.5 11.6667ZM9.50521 11.6667H26.4948L18.1701 31.0017C18.1094 31.1476 17.8967 31.1476 17.8359 31.0017L9.50521 11.6667ZM21.9071 26.9609L29.3811 11.6667H35.5L22.2109 27.1554C22.0712 27.3194 21.816 27.1493 21.9071 26.9609Z" fill="#0098C7"/>
</svg>
