<svg width="36" height="35" viewBox="0 0 36 35" fill="none" xmlns="http://www.w3.org/2000/svg">
<path d="M35.0297 1.30525C34.9483 0.92709 34.5746 0.553301 34.1952 0.47209C31.9943 0 30.271 0 28.5552 0C21.4983 0 17.2665 3.77364 14.1071 8.75H6.98307C5.86553 8.75109 4.55241 9.56177 4.05134 10.5604L0.671992 17.3152C0.56755 17.5456 0.509124 17.7941 0.5 18.0469C0.500163 18.482 0.673123 18.8993 0.980853 19.2069C1.28858 19.5146 1.70589 19.6874 2.14104 19.6875H9.23742L7.70111 21.2235C6.92414 22.0001 6.81272 23.4286 7.70111 24.3167L11.1809 27.7966C11.9435 28.5614 13.379 28.696 14.276 27.7966L15.8124 26.2607V33.3594C15.8125 33.7945 15.9855 34.2118 16.2932 34.5194C16.6009 34.8271 17.0182 34.9999 17.4533 35C17.7061 34.9906 17.9547 34.9322 18.1853 34.828L24.9343 31.4517C25.9343 30.9529 26.7464 29.6402 26.7464 28.5219V21.3826C31.7091 18.2167 35.4986 13.972 35.4986 6.95235C35.5051 5.22949 35.5051 3.50663 35.0297 1.30519V1.30525ZM26.7527 11.4844C26.212 11.4842 25.6834 11.3238 25.2338 11.0232C24.7842 10.7227 24.4338 10.2956 24.227 9.79593C24.0201 9.29627 23.9661 8.7465 24.0717 8.21613C24.1773 7.68576 24.4377 7.1986 24.8202 6.81626C25.2026 6.43392 25.6898 6.17357 26.2202 6.06812C26.7506 5.96266 27.3004 6.01685 27.8 6.22383C28.2996 6.43081 28.7266 6.78128 29.027 7.23093C29.3274 7.68058 29.4878 8.20922 29.4878 8.75C29.4874 9.47519 29.1991 10.1706 28.6862 10.6833C28.1734 11.196 27.4779 11.4841 26.7527 11.4844Z" fill="#0098C7"/>
</svg>
