<svg width="745" height="609" viewBox="0 0 745 609" fill="none" xmlns="http://www.w3.org/2000/svg">
<g clip-path="url(#clip0)">
<path opacity="0.1" d="M726.885 353.032C726.885 353.495 726.885 353.958 726.885 354.413C726.804 362.391 726.331 370.349 725.467 378.286C725.471 378.334 725.471 378.383 725.467 378.43C725.399 379.09 725.323 379.742 725.247 380.402C725.118 381.517 724.982 382.624 724.83 383.739C723.063 397.309 720.14 410.703 716.091 423.774C710.667 441.437 703 458.33 693.276 474.039C690.285 478.842 687.099 483.491 683.718 487.986C681.914 490.367 680.072 492.695 678.17 494.985C676.836 496.588 675.477 498.166 674.092 499.718L673.228 500.673C665.943 508.676 658.09 516.143 649.731 523.015C636.087 534.33 621.398 544.174 606.474 553.305C605.625 553.828 604.768 554.344 603.912 554.821C603.852 554.865 603.789 554.903 603.722 554.935C583.439 567.206 562.405 578.278 540.735 587.144C517.011 596.874 492.513 603.949 467.379 607.043C432.345 611.351 396.888 607.847 362.067 601.826C333.107 596.847 304.497 590.008 276.416 581.349L271.792 579.901C269.397 579.138 267.005 578.359 264.615 577.565C250.178 572.787 235.903 567.479 221.789 561.639C186.343 547.032 152.48 528.84 120.729 507.347C116.687 504.627 112.702 501.846 108.776 499.005C103.288 495.051 97.8664 490.981 92.5101 486.795L89.2054 484.232C75.1879 473.249 62.0548 461.182 49.9274 448.14C33.6159 430.379 19.6769 410.343 10.513 387.47C9.06784 383.876 7.74393 380.213 6.54128 376.481L6.42758 376.11C5.82121 374.214 5.26031 372.318 4.74489 370.346C3.98692 367.525 3.32244 364.668 2.75144 361.776C2.63016 361.223 2.52405 360.669 2.42551 360.108C0.613878 350.376 -0.186252 340.482 0.0379072 330.584C0.227479 321.913 1.24269 313.279 3.06978 304.8C4.93986 296.01 7.82167 287.467 11.6576 279.341C15.1241 272.034 19.5409 265.218 24.7932 259.069C28.4839 254.771 32.6346 250.89 37.1708 247.497C45.3948 241.369 54.5131 237.099 63.965 233.724C68.4067 232.132 72.909 230.736 77.4341 229.44C80.6403 228.514 83.8617 227.635 87.0679 226.77L96.5273 224.214C102.591 222.561 108.655 220.862 114.628 219.027C130.909 214.052 146.864 208.031 161.622 199.051C163.956 197.633 166.336 196.079 168.716 194.41C171.748 192.302 174.735 190.012 177.691 187.539C180.677 185.037 183.603 182.359 186.392 179.523C186.824 179.083 187.249 178.643 187.673 178.196C189.947 175.8 192.153 173.289 194.199 170.68C195.2 169.406 196.17 168.11 197.095 166.79C198.376 164.962 199.588 163.104 200.71 161.193C206.334 151.638 209.806 141.096 209.396 129.986C209.337 128.155 209.172 126.33 208.904 124.518C207.918 117.822 206.971 111.284 206.274 104.891C203.348 78.4466 204.583 54.4667 224.419 31.9353C249.084 3.9284 287.793 -1.78218 323.031 0.455032C424.91 6.90124 517.655 65.0991 599.159 134.385C606.208 140.371 613.172 146.438 620.049 152.586C621.782 154.133 623.518 155.69 625.256 157.257C638.142 168.868 650.83 180.911 662.647 193.811C663.602 194.858 664.557 195.904 665.497 196.958C666.073 197.61 666.656 198.255 667.225 198.915C670.909 203.086 674.484 207.358 677.95 211.731C687.236 223.342 695.436 235.781 702.448 248.892C713.183 269.468 720.451 291.676 723.959 314.621C725.278 322.953 726.145 331.35 726.559 339.776C726.687 342.256 726.771 344.743 726.816 347.223C726.816 348.02 726.816 348.808 726.816 349.605C726.892 350.757 726.892 351.88 726.885 353.032Z" fill="#F14A4A"/>
<path d="M298.625 340.314L286.497 556.293L298.625 556.452L308.478 337.281L298.625 340.314Z" fill="#3F3D56"/>
<path d="M253.904 449.741H103.827V482.351H253.904V449.741Z" fill="#F14A4A"/>
<path d="M263.758 478.551V499.027H108.731C103.243 495.074 97.8209 491.004 92.4646 486.818V478.551H263.758Z" fill="#3F3D56"/>
<path d="M294.713 431.949C294.289 433.913 293.736 435.855 293.152 437.789C291.431 443.378 289.362 448.891 288.96 454.7C288.422 462.375 290.476 471.301 285.171 476.875C283.806 478.316 282.025 479.393 280.805 480.933C280.617 481.174 280.445 481.428 280.289 481.691C279.198 483.496 279.069 485.695 279.054 487.758C279.067 492.158 279.353 496.552 279.91 500.916C281.707 515.932 285.254 530.978 280.592 545.152C279.748 547.611 278.763 550.018 277.644 552.364C275.37 557.37 272.891 562.307 272.149 567.729C271.603 571.748 271.77 575.889 271.739 579.977C269.344 579.213 266.952 578.435 264.561 577.641C250.125 572.863 235.85 567.555 221.736 561.715C221.774 561.51 221.812 561.298 221.842 561.093C222.926 554.344 221.441 547.442 219.637 540.86C215.847 526.913 210.48 513.103 207.304 499.058C206.025 493.572 205.187 487.993 204.796 482.374C204.705 481.115 204.652 479.848 204.644 478.582C204.606 476.929 204.644 475.275 204.712 473.607C204.871 470.278 205.015 466.326 202.355 464.302C200.892 463.202 198.959 463.012 197.254 462.345C193.964 461.063 191.713 458.09 189.106 455.709C187.862 454.502 186.343 453.616 184.681 453.127C183.018 452.638 181.262 452.561 179.563 452.903C162.524 456.809 150.002 471.271 134.145 478.582C133.531 478.87 132.917 479.143 132.296 479.401C130.245 480.152 128.293 481.151 126.482 482.374C125.21 483.257 124.288 484.559 123.875 486.052C123.473 487.66 123.822 489.343 124.019 490.996C124.338 493.685 124.223 496.406 123.678 499.058C123.472 500.085 123.201 501.099 122.867 502.091C122.26 503.889 121.449 505.648 120.676 507.4C116.634 504.68 112.649 501.899 108.723 499.058C103.235 495.104 97.8133 491.034 92.457 486.848L89.2053 484.232C75.1878 473.25 62.0547 461.182 49.9274 448.141C51.5418 443.59 53.8764 439.359 54.9982 434.694C55.6349 432.017 55.8698 429.234 56.7491 426.633C57.763 423.936 59.1732 421.406 60.9331 419.125C67.3784 410.132 75.2487 402.252 84.233 395.797C93.6243 389.063 104.471 383.663 112.922 376.019C116.352 373.015 119.308 369.509 121.692 365.621C121.836 365.386 121.972 365.136 122.094 364.863C122.753 363.49 123.21 362.029 123.45 360.525C124.057 357.128 123.966 353.396 124.269 350.135C134.564 351.919 145.06 352.235 155.444 351.076C167.534 349.718 179.358 346.359 191.448 345.054C192.357 344.948 193.274 344.865 194.192 344.789C198.065 344.478 201.946 344.41 205.834 344.455C209.086 344.455 212.337 344.599 215.589 344.705L251.388 345.919C255.352 346.055 259.4 346.207 263.091 347.656C267.472 349.377 270.981 352.805 273.793 356.574C274.15 357.059 274.506 357.545 274.839 358.045C277.153 361.423 279.009 365.092 280.357 368.958C280.501 369.353 280.638 369.717 280.767 370.149C281.108 371.203 281.403 372.265 281.669 373.342C281.873 374.184 282.055 375.025 282.222 375.875C283.056 380.076 283.549 384.369 284.867 388.426C284.958 388.722 285.057 389.017 285.163 389.306C286.747 393.75 289.377 397.731 291.363 402.001C292.795 405.092 293.888 408.329 294.622 411.655C296.107 418.335 296.138 425.256 294.713 431.949Z" fill="#35323E"/>
<path d="M185.899 160.548C182.701 158 178.062 159.866 174.318 161.511C171.178 162.899 167.947 164.067 164.646 165.008C163.971 165.268 163.238 165.344 162.524 165.227C161.008 164.863 160.371 163.066 159.242 161.974C157.279 160.086 154.065 160.533 151.533 161.557C149.002 162.581 146.5 164.06 143.787 163.832C140.891 163.605 138.375 161.466 135.449 161.398C130.295 161.276 125.967 167.631 121.093 165.948C118.122 164.924 115.787 161.056 112.862 162.156C110.588 163.021 110.383 166.168 109.011 168.223C107.397 170.62 104.251 171.294 101.56 172.356C93.0786 175.708 87.462 185.165 88.5687 194.22C89.1826 199.218 91.6005 203.799 93.1998 208.569C97.9447 222.439 96.3151 238.085 102.295 251.463C103.053 250.75 103.478 250.484 104.213 249.779C102.322 253.703 101.958 258.19 103.19 262.368C103.819 264.469 104.842 266.425 105.615 268.481C106.419 270.786 107.067 273.142 107.556 275.533L114.15 304.64C116.727 316.016 119.312 327.391 119.759 339.04C120.038 346.614 119.458 354.196 118.031 361.64C129.976 359.66 140.906 354.359 153.011 354.428C157.453 354.428 161.857 355.186 166.26 355.793C179.1 357.59 192.051 358.47 205.015 358.424C207.032 358.539 209.051 358.256 210.958 357.59C212.625 356.877 213.99 355.611 215.566 354.693C218.651 352.873 222.388 352.418 225.943 352.418C242.156 352.122 257.778 358.06 273.884 360.153C280.244 346.798 280.623 330.796 275.742 316.835C274.294 312.686 272.346 308.644 271.77 304.284C271.538 301.603 271.478 298.91 271.588 296.222C271.563 289.34 270.323 282.516 267.927 276.064C266.987 273.539 265.858 270.968 265.956 268.276C266.055 265.584 267.381 263.073 268.685 260.692C271.33 255.838 273.991 250.939 277.727 246.844C281.555 242.612 286.345 239.389 291.083 236.227L302.778 228.37C301.179 218.261 299.117 207.613 294.835 198.315C290.552 189.018 284.147 180.471 275.484 175.033C272.563 173.275 269.506 171.754 266.343 170.483C261.916 168.617 257.308 166.972 252.51 166.691C247.052 166.38 241.678 167.844 236.289 168.754C219.326 171.613 199.361 171.264 185.899 160.548Z" fill="#F14A4A"/>
<path d="M313.784 335.977L308.22 343.007L297.73 356.256L285.603 371.567L282.215 375.845H275.643L112.915 376.034L11.0057 376.148H6.45788C5.85151 374.252 5.29061 372.356 4.77519 370.384C4.01722 367.563 3.35274 364.707 2.78174 361.815C2.66046 361.261 2.55435 360.707 2.45581 360.146L39.4295 335.961L53.3307 335.886L95.8527 335.643L119.6 335.506H123.935H126.657L142.483 335.423L263.106 334.733L269.276 334.695H271.952L279.039 334.657L305.408 334.505L310.472 332.579L310.843 332.973L313.784 335.977Z" fill="#3F3D56"/>
<path d="M311.51 332.185L310.881 332.943L306.742 337.819L298.223 347.883L280.358 368.958L122.094 364.916L2.75144 361.883C2.63016 361.329 2.52405 360.775 2.42551 360.214C0.613878 350.482 -0.186252 340.588 0.0379072 330.691L13.272 323.911L16.3039 322.348L39.8995 310.214L60.6072 299.597L114.62 306.62L126.581 308.174L131.993 308.872L139.913 309.904L140.58 309.995L264.789 326.11L278.516 327.892L286.573 328.939L311.404 332.169L311.51 332.185Z" fill="#504F60"/>
<path d="M285.739 368.587L285.61 371.567L284.852 388.396L280.774 480.918L279.91 500.916L277.636 552.365L276.355 581.426L271.732 579.977C269.337 579.214 266.944 578.435 264.554 577.641L275.643 375.913L275.878 371.681L280.759 370.164L285.739 368.587Z" fill="#3F3D56"/>
<path d="M11.3544 368.367L11.0133 376.155L10.513 387.531C9.06782 383.936 7.74391 380.273 6.54126 376.542L6.42756 376.17C5.82119 374.274 5.26029 372.379 4.74487 370.407L11.3544 368.367Z" fill="#3F3D56"/>
<path d="M209.563 253.7C228.82 253.7 244.43 232.649 244.43 206.681C244.43 180.712 228.82 159.661 209.563 159.661C190.307 159.661 174.697 180.712 174.697 206.681C174.697 232.649 190.307 253.7 209.563 253.7Z" fill="#A1616A"/>
<path opacity="0.1" d="M209.563 253.7C228.82 253.7 244.43 232.649 244.43 206.681C244.43 180.712 228.82 159.661 209.563 159.661C190.307 159.661 174.697 180.712 174.697 206.681C174.697 232.649 190.307 253.7 209.563 253.7Z" fill="black"/>
<path d="M214.49 226.778C241.281 226.778 263 205.048 263 178.242C263 151.436 241.281 129.706 214.49 129.706C187.699 129.706 165.98 151.436 165.98 178.242C165.98 205.048 187.699 226.778 214.49 226.778Z" fill="#A1616A"/>
<path d="M215.453 103.435C212.491 103.671 209.55 104.12 206.653 104.777C198.982 106.643 192.35 110.784 185.892 114.849C182.996 116.676 180.018 118.58 178.221 121.265C174.992 126.08 176.243 132.208 174.431 137.555C173.492 140.3 171.763 142.765 170.3 145.32C166.276 152.328 164.168 160.025 162.099 167.647C161.675 169.224 161.553 171.363 163.274 171.97C164.265 172.176 165.295 172.059 166.215 171.636C171.65 169.839 178.555 169.323 182.587 172.971C186.62 176.619 186.278 183.088 191.076 185.863C196.572 189.071 205.152 185.196 210.139 188.98C212.277 190.603 213.05 193.204 214.801 195.161C218.879 199.711 226.724 199.491 233.25 198.574C236.994 198.043 241.587 197.686 243.861 200.318C244.953 201.562 245.264 203.268 246.529 204.39C248.803 206.423 252.965 205.391 255.185 203.306C257.406 201.22 258.467 198.399 260.317 196.056C263.917 191.506 270.246 189.026 273.96 184.528C277.068 180.737 278.008 175.989 278.857 171.409L282.017 154.428C283.298 147.542 284.466 140.019 280.592 133.952C279.213 131.768 277.235 129.887 276.045 127.627C275.249 126.111 274.802 124.51 273.877 123.077C272.78 121.584 271.47 120.26 269.989 119.149L262.507 112.953C259.95 110.713 257.214 108.684 254.329 106.886C243.649 100.659 227.656 102.298 215.453 103.435Z" fill="#464353"/>
<path d="M55.6729 228.461C53.8765 230.373 52.2165 232.435 50.2913 234.225C48.5977 235.732 46.8267 237.15 44.9855 238.472C42.0143 240.697 39.1087 243 36.2689 245.381C33.3061 247.725 30.6252 250.404 28.2799 253.367C24.2323 258.804 22.3147 265.569 18.5248 271.188C15.1746 276.171 10.4525 280.107 7.04918 285.052C5.55615 287.13 4.44718 289.46 3.77475 291.93C3.27283 294.321 3.04649 296.761 3.10016 299.203C3.03195 303.207 2.97131 307.257 3.78992 311.178C4.60852 315.098 6.40491 318.951 9.48226 321.522C12.3398 323.911 16.0311 325.01 19.6466 325.921C21.5112 326.383 23.5274 326.815 25.3011 326.08C26.5989 325.424 27.7255 324.473 28.5907 323.304L37.8151 312.687C43.985 305.558 50.3974 298.278 58.8639 294.107C61.5168 292.81 64.3137 291.831 66.9742 290.573C78.2528 285.135 86.2266 274.002 89.3191 261.868C90.0771 258.903 90.5622 255.877 91.0549 252.851L92.3889 244.554C92.4913 244.138 92.4913 243.704 92.3889 243.288C92.18 242.82 91.8438 242.421 91.4187 242.135C84.9935 236.943 78.9776 231.264 73.4245 225.147C72.1056 223.691 70.8702 221.697 69.3466 220.476C67.4366 218.959 67.5806 219.073 65.2839 220.476C61.751 222.714 58.5207 225.398 55.6729 228.461Z" fill="#A1616A"/>
<path d="M118.774 283.671C118.697 283.495 118.586 283.336 118.446 283.204C118.306 283.072 118.142 282.97 117.961 282.903C117.781 282.837 117.59 282.807 117.398 282.817C117.206 282.826 117.018 282.874 116.845 282.958C116.673 283.042 116.519 283.16 116.392 283.305C116.266 283.45 116.171 283.619 116.112 283.801C116.053 283.984 116.031 284.177 116.048 284.368C116.065 284.56 116.121 284.746 116.212 284.915L115.454 285.287L138.056 331.639L142.142 329.644L119.539 283.262L118.774 283.671Z" fill="#3F3D56"/>
<path opacity="0.04" d="M55.6729 228.461C53.8765 230.373 52.2165 232.435 50.2913 234.225C48.5977 235.732 46.8267 237.15 44.9855 238.472C42.0143 240.697 39.1087 243 36.2689 245.381C33.3061 247.725 30.6252 250.404 28.2799 253.367C24.2323 258.804 22.3147 265.569 18.5248 271.188C15.1746 276.171 10.4525 280.107 7.04918 285.052C5.55615 287.13 4.44718 289.46 3.77475 291.93C3.27283 294.321 3.04649 296.761 3.10016 299.203C3.03195 303.207 2.97131 307.257 3.78992 311.178C4.60852 315.098 6.40491 318.951 9.48226 321.522C12.3398 323.911 16.0311 325.01 19.6466 325.921C21.5112 326.383 23.5274 326.815 25.3011 326.08C26.5989 325.424 27.7255 324.473 28.5907 323.304L37.8151 312.687C43.985 305.558 50.3974 298.278 58.8639 294.107C61.5168 292.81 64.3137 291.831 66.9742 290.573C78.2528 285.135 86.2266 274.002 89.3191 261.868C90.0771 258.903 90.5622 255.877 91.0549 252.851L92.3889 244.554C92.4913 244.138 92.4913 243.704 92.3889 243.288C92.18 242.82 91.8438 242.421 91.4187 242.135C84.9935 236.943 78.9776 231.264 73.4245 225.147C72.1056 223.691 70.8702 221.697 69.3466 220.476C67.4366 218.959 67.5806 219.073 65.2839 220.476C61.751 222.714 58.5207 225.398 55.6729 228.461Z" fill="black"/>
<path d="M316.975 313.885C316.899 318.724 316.71 323.706 314.701 328.12C313.837 330.031 312.495 331.912 310.487 332.541C309.271 332.822 308.013 332.868 306.78 332.678C291.91 331.37 276.925 332.559 262.447 336.197C266.312 328.461 264.092 319.186 265.16 310.601C265.456 308.258 265.994 305.952 266.199 303.602C266.957 295.259 263.387 287.16 261.749 278.924C260.328 271.795 260.328 264.455 261.749 257.325C262.028 255.49 262.659 253.726 263.606 252.13C264.717 250.578 266.176 249.307 267.866 248.422C274.006 244.926 281.244 244.524 288.142 244.986C292.788 245.297 302.104 244.858 305.977 247.717C310.214 250.849 311.556 261.367 312.7 266.229C314.414 273.684 315.579 281.255 316.187 288.881C316.93 297.193 317.089 305.543 316.975 313.885Z" fill="#A1616A"/>
<path d="M45.463 330.675L72.7499 348.876L195.541 344.326L114.438 330.675H45.463Z" fill="white"/>
<path d="M81.4438 186.06C76.9642 190.011 73.1667 194.668 68.9221 198.877C63.1009 204.656 56.4838 209.57 49.8971 214.461C52.2588 215.122 54.4085 216.385 56.1358 218.126C57.8631 219.868 59.1087 222.028 59.7507 224.396C60.0387 225.511 60.1827 226.671 60.5087 227.763C61.2666 230.349 62.9342 232.579 64.723 234.589C72.4088 243.257 83.1643 249.673 87.697 260.374C87.8449 260.894 88.1657 261.349 88.6066 261.663C88.9754 261.826 89.385 261.874 89.7814 261.799C93.882 261.367 97.02 258.061 99.635 254.845C105.092 248.02 109.83 240.481 112.52 232.154C115.211 223.827 115.643 214.621 112.71 206.37C111.247 202.259 108.988 198.482 106.745 194.744C104.779 191.472 102.818 188.206 100.863 184.945C99.8397 183.224 98.5359 179.728 96.5273 178.878C92.1917 177.013 84.2255 183.277 81.4438 186.06Z" fill="#F14A4A"/>
<path d="M304.696 235.074L311.146 250.242C304.124 247.787 296.619 247.04 289.252 248.062C281.884 249.084 274.865 251.846 268.776 256.119C265.1 258.751 261.727 262.058 260.067 266.259C259.247 266.415 258.401 266.336 257.624 266.031C256.848 265.727 256.173 265.209 255.678 264.537C254.708 263.176 254.145 261.566 254.056 259.896C253.457 254.072 255.663 248.361 257.846 242.916C258.862 240.368 259.908 237.767 261.711 235.696C263.515 233.626 265.911 232.261 268.306 230.972C275.947 226.743 283.95 223.205 292.22 220.4C295.706 219.27 299.36 219.293 301.315 222.554C303.582 226.444 302.922 230.934 304.696 235.074Z" fill="#F14A4A"/>
<path d="M45.6222 280.585C47.2367 281.874 48.6541 283.398 50.314 284.627C52.0695 285.846 53.9376 286.895 55.8927 287.759L63.3662 291.354C65.6822 292.558 68.1056 293.543 70.6048 294.296C73.8035 295.153 77.1613 295.237 80.375 296.033C84.4302 297.034 88.1367 299.119 92.1311 300.325C96.1256 301.531 100.802 301.728 104.137 299.218C106.222 297.648 107.798 295.055 110.383 294.668C112.051 294.448 113.657 295.252 115.143 296.033L134.593 306.263C137.215 307.644 139.989 309.176 141.361 311.807C142.733 314.439 141.808 318.435 138.921 319.118C137.914 319.234 136.902 319.292 135.889 319.292C134.888 319.414 133.797 320.005 133.66 321.014C133.655 321.64 133.82 322.256 134.138 322.796C135.009 324.798 135.267 327.195 134.251 329.136C133.236 331.077 130.742 332.283 128.749 331.411C129.09 334.346 125.899 336.401 123.056 337.182C115.886 339.147 108.283 337.941 100.954 336.697C98.0736 336.212 95.1479 335.711 92.5253 334.422C91.2671 333.808 90.0998 333.019 88.8264 332.45C85.3322 330.895 81.3604 331.1 77.5402 331.168C59.872 331.479 42.3553 328.203 24.9827 324.942C21.7613 324.335 18.449 323.691 15.6976 321.909C10.3918 318.45 8.42107 311.352 9.29274 305.073C10.1644 298.793 13.3479 293.106 16.4783 287.585L20.5334 280.433C21.0635 279.337 21.8055 278.358 22.7164 277.551C28.6816 272.993 40.5135 276.474 45.6222 280.585Z" fill="#A1616A"/>
<path opacity="0.04" d="M45.6222 280.585C47.2367 281.874 48.6541 283.398 50.314 284.627C52.0695 285.846 53.9376 286.895 55.8927 287.759L63.3662 291.354C65.6822 292.558 68.1056 293.543 70.6048 294.296C73.8035 295.153 77.1613 295.237 80.375 296.033C84.4302 297.034 88.1367 299.119 92.1311 300.325C96.1256 301.531 100.802 301.728 104.137 299.218C106.222 297.648 107.798 295.055 110.383 294.668C112.051 294.448 113.657 295.252 115.143 296.033L134.593 306.263C137.215 307.644 139.989 309.176 141.361 311.807C142.733 314.439 141.808 318.435 138.921 319.118C137.914 319.234 136.902 319.292 135.889 319.292C134.888 319.414 133.797 320.005 133.66 321.014C133.655 321.64 133.82 322.256 134.138 322.796C135.009 324.798 135.267 327.195 134.251 329.136C133.236 331.077 130.742 332.283 128.749 331.411C129.09 334.346 125.899 336.401 123.056 337.182C115.886 339.147 108.283 337.941 100.954 336.697C98.0736 336.212 95.1479 335.711 92.5253 334.422C91.2671 333.808 90.0998 333.019 88.8264 332.45C85.3322 330.895 81.3604 331.1 77.5402 331.168C59.872 331.479 42.3553 328.203 24.9827 324.942C21.7613 324.335 18.449 323.691 15.6976 321.909C10.3918 318.45 8.42107 311.352 9.29274 305.073C10.1644 298.793 13.3479 293.106 16.4783 287.585L20.5334 280.433C21.0635 279.337 21.8055 278.358 22.7164 277.551C28.6816 272.993 40.5135 276.474 45.6222 280.585Z" fill="black"/>
<path d="M276.239 293.611C272.29 295.477 267.757 295.659 263.634 297.092C259.511 298.526 256.009 301.104 252.226 303.205C242.373 308.711 231.003 310.788 219.838 312.768C213.07 313.981 206.195 315.195 199.373 314.906C190.141 314.512 181.273 311.433 172.329 309.112C163.385 306.792 153.842 305.23 144.981 307.838C140.354 309.248 136.125 311.729 132.635 315.079C129.145 318.43 126.494 322.556 124.895 327.124C123.038 332.577 122.781 338.454 123.137 344.203C125.001 345.575 127.609 343.672 128.624 341.586C129.64 339.501 130.193 336.945 132.164 335.732C135.583 336.892 136.416 341.45 139.236 343.702C140.995 345.113 143.344 345.484 145.58 345.803L157.101 347.441C159.876 347.835 163.097 348.101 165.106 346.144C166.083 345.196 166.621 343.869 167.516 342.853C169.35 340.82 172.412 340.471 175.141 340.744C183.661 341.594 191.65 347.122 200.109 345.81C203.019 345.363 205.725 344.119 208.499 343.141C224.94 337.332 243.207 340.866 260.314 337.536C266.84 336.27 273.124 334.025 279.331 331.659C282.704 330.377 286.115 329.035 288.996 326.866C291.724 324.767 293.876 322.009 295.25 318.851C296.623 315.693 297.173 312.238 296.848 308.809C296.214 303.584 293.608 298.798 289.564 295.431C288.23 294.294 286.479 292.117 284.88 291.404C281.825 290.062 278.831 292.39 276.239 293.611Z" fill="#A1616A"/>
<g opacity="0.1">
<path opacity="0.1" d="M254.852 196.807C253.586 195.684 253.275 193.978 252.184 192.734C249.91 190.103 245.317 190.459 241.572 190.99C235.046 191.907 227.171 192.12 223.123 187.577C221.372 185.62 220.599 183.027 218.462 181.396C213.474 177.604 204.894 181.487 199.399 178.279C194.601 175.481 194.912 168.989 190.91 165.387C186.908 161.785 179.972 162.255 174.538 164.052C173.618 164.475 172.587 164.592 171.597 164.386C169.876 163.779 169.997 161.641 170.422 160.063C172.491 152.441 174.598 144.744 178.623 137.737C180.086 135.181 181.814 132.716 182.754 129.971C184.399 125.163 183.557 119.725 185.718 115.175C183.398 116.692 181.17 118.345 179.737 120.483C176.508 125.299 177.759 131.427 175.947 136.773C175.007 139.519 173.279 141.983 171.816 144.539C167.792 151.547 165.684 159.244 163.615 166.866C163.191 168.443 163.069 170.582 164.79 171.189C165.781 171.394 166.811 171.278 167.731 170.855C173.166 169.058 180.071 168.542 184.103 172.19C188.135 175.837 187.794 182.306 192.592 185.082C198.088 188.29 206.668 184.415 211.655 188.199C213.793 189.822 214.566 192.423 216.317 194.38C220.395 198.93 228.24 198.71 234.766 197.792C238.51 197.262 243.103 196.905 245.377 199.537C246.469 200.78 246.78 202.487 248.045 203.609C250.319 205.642 254.48 204.61 256.701 202.525C258.125 201.041 259.344 199.373 260.324 197.565C258.354 198.164 256.254 198.073 254.852 196.807Z" fill="black"/>
<path opacity="0.1" d="M268.662 188.464C268.174 189.093 267.721 189.749 267.305 190.428C270.216 188.35 273.301 186.409 275.476 183.762C276.041 183.077 276.548 182.347 276.992 181.578C273.968 183.747 270.815 185.742 268.662 188.464Z" fill="black"/>
</g>
<path d="M421.794 338.638L424.068 556.293L434.68 554.776L432.406 338.638H421.794Z" fill="#3F3D56"/>
<path d="M485.464 378.074L487.738 595.729L498.349 594.212L496.075 378.074H485.464Z" fill="#3F3D56"/>
<path d="M683.695 488.024L683.65 483.845V481.358L683.248 443.075L682.619 383.224L682.513 378.059H671.901L671.955 383.034L672.288 415.091L672.432 428.969L672.553 440.208L672.75 459.638L672.872 471.097V472.31L673.031 487.372L673.167 500.651L674.031 499.695C675.421 498.143 676.78 496.566 678.109 494.963L683.695 488.024Z" fill="#3F3D56"/>
<path d="M473.715 413.338L467.652 422.409L473.715 463.733L525.257 477.846H608.634L658.66 480.872L682.49 464.552L678.367 436.522L660.176 413.338H473.715Z" fill="#F14A4A"/>
<path d="M467.652 422.409L464.62 447.602C464.62 447.602 448.702 496.995 576.799 493.969C704.896 490.943 682.915 480.864 682.915 480.864L682.157 451.637C682.157 451.637 686.621 465.469 621.519 463.596C556.417 461.723 495.697 455.671 495.697 455.671C495.697 455.671 472.957 459.698 467.652 422.409Z" fill="#3F3D56"/>
<path d="M574.374 196.594C567.067 199.923 561.534 206.377 557.827 213.513C554.121 220.65 552.036 228.484 549.982 236.265C547.814 244.47 545.639 252.699 544.517 261.109C542.516 276.064 544.017 291.786 550.884 305.217C557.751 318.647 570.44 329.485 585.296 332.071C591.034 333.079 596.931 332.875 602.729 332.275C613.21 331.165 623.534 328.888 633.51 325.488C643.932 321.962 654.779 316.532 659.418 306.529C662.109 300.727 662.336 294.114 662.207 287.728C661.849 270.324 659.222 253.041 654.392 236.318C652.99 231.464 651.36 226.573 648.389 222.485C645.418 218.397 641.355 215.402 637.209 212.626C619.48 200.682 596.18 186.674 574.374 196.594Z" fill="#FBBEBE"/>
<path opacity="0.05" d="M574.374 196.594C567.067 199.923 561.534 206.377 557.827 213.513C554.121 220.65 552.036 228.484 549.982 236.265C547.814 244.47 545.639 252.699 544.517 261.109C542.516 276.064 544.017 291.786 550.884 305.217C557.751 318.647 570.44 329.485 585.296 332.071C591.034 333.079 596.931 332.875 602.729 332.275C613.21 331.165 623.534 328.888 633.51 325.488C643.932 321.962 654.779 316.532 659.418 306.529C662.109 300.727 662.336 294.114 662.207 287.728C661.849 270.324 659.222 253.041 654.392 236.318C652.99 231.464 651.36 226.573 648.389 222.485C645.418 218.397 641.355 215.402 637.209 212.626C619.48 200.682 596.18 186.674 574.374 196.594Z" fill="black"/>
<path d="M566.165 292.051C568.28 294.96 570.837 297.519 573.745 299.635C580.96 304.625 590.223 305.3 598.985 305.573C606.019 305.785 614.084 305.383 618.495 299.893C620.481 297.42 621.375 294.265 622.179 291.194C627.137 272.334 630.659 253.125 632.715 233.732L652.786 233.8C661.472 271.014 660.759 309.698 660.001 347.913L658.902 403.639L645.971 402.266C615.266 399.013 584.515 395.759 553.643 395.198C535.555 394.865 517.461 395.463 499.433 396.988L527.592 313.217C531.245 302.327 534.937 291.293 535.793 279.849C537.029 263.248 532.375 245.722 538.825 230.365C539.34 229.128 539.992 227.847 541.167 227.202C542.342 226.558 543.828 226.717 545.177 226.891C547.723 227.232 555.508 226.891 557.357 228.522C560.086 230.888 558.282 231.244 557.319 235.059C555.599 241.884 553.969 248.202 553.992 255.315C554.015 268.23 558.017 281.866 566.165 292.051Z" fill="#F14A4A"/>
<path d="M683.695 488.024C687.076 483.534 690.262 478.885 693.253 474.077C691.738 470.831 690.07 467.661 688.744 464.347C686.712 459.266 685.545 453.881 684.393 448.535C683.999 446.715 683.607 444.895 683.218 443.075C678.973 423.273 674.986 403.191 674.16 383.117C674.084 381.449 674.036 379.78 674.016 378.112C674.016 377.869 674.016 377.634 674.016 377.354C674.016 375.526 674.016 373.698 674.016 371.878C674.107 367.328 674.395 362.74 674.918 358.174C675.017 357.279 675.13 356.384 675.252 355.49C675.252 355.292 675.297 355.103 675.328 354.906L726.869 353.025L731.205 352.866C734.184 352.759 737.337 352.592 739.793 350.901C743.924 348.065 744.409 342.248 744.341 337.251C744.09 324.619 742.659 312.038 740.066 299.673C738.11 290.375 735.321 280.873 729.06 273.729C723.921 267.859 716.478 263.589 713.802 256.286C712.809 253.571 712.559 250.591 711.27 247.997C709.982 245.403 707.852 243.5 705.843 241.498C698.774 234.489 692.91 226.361 688.486 217.442C685.416 211.254 682.089 204.428 678.079 200.151C677.882 199.931 677.685 199.726 677.48 199.529C674.069 196.154 670.166 194.676 665.542 196.973C664.711 197.391 663.919 197.883 663.177 198.445C661.529 199.704 660.023 201.138 658.683 202.722C654.012 208.095 649.914 213.941 646.456 220.165C644.025 224.546 641.937 229.11 640.211 233.815C638.848 237.533 637.722 241.332 636.838 245.191C636.186 248.05 635.671 250.94 635.261 253.837C633.745 264.727 633.745 275.83 633.958 286.856C634.185 296.988 634.632 307.143 635.549 317.237C635.777 319.679 636.029 322.118 636.307 324.555C636.863 329.374 637.55 334.177 638.369 338.964C638.695 340.792 639.028 342.62 639.4 344.44C639.491 344.925 639.589 345.411 639.688 345.888L639.733 346.093C640.735 350.324 641.511 354.605 642.06 358.917C642.121 359.458 642.166 359.997 642.197 360.533C642.324 363.012 642.304 365.496 642.136 367.972C641.962 370.9 641.689 373.82 641.552 376.747C641.552 377.263 641.552 377.771 641.499 378.264C641.461 379.742 641.499 381.221 641.499 382.7C641.653 386.238 642.074 389.759 642.758 393.234C644.036 399.697 646.244 405.94 649.314 411.769C649.602 412.315 649.898 412.853 650.193 413.384C654.036 420.255 658.887 426.557 662.442 433.587C665.508 439.914 667.799 446.588 669.264 453.464C669.769 455.734 670.249 458.01 670.704 460.29C671.409 463.93 672.038 467.6 672.682 471.271C672.743 471.635 672.811 472.029 672.879 472.363C673.736 477.232 674.638 482.078 675.797 486.833C676.472 489.601 677.23 492.331 678.117 495.016L683.695 488.024Z" fill="#464353"/>
<path d="M673.569 428.248C673.569 428.931 673.523 429.613 673.493 430.303C673.358 433.631 673.052 436.949 672.576 440.246C671.948 444.745 670.848 449.165 669.294 453.434C668.264 456.241 666.954 458.936 665.383 461.48C663.99 463.739 662.358 465.842 660.517 467.752C655.969 472.484 649.42 473.993 643.083 475.988C640.168 476.833 637.35 477.984 634.678 479.423C634.2 479.689 633.73 479.977 633.275 480.28L625.347 485.536C622.876 487.166 620.352 488.858 618.654 491.277C618.376 491.688 618.123 492.116 617.896 492.559C616.823 494.785 616.039 497.14 615.562 499.566C611.438 516.751 607.307 533.951 604.48 551.393C604.291 552.546 604.109 553.707 603.912 554.867L603.843 555.231C603.809 555.145 603.769 555.061 603.722 554.981C583.439 567.251 562.405 578.323 540.735 587.189L536.028 547.753C535.537 544.548 535.375 541.3 535.543 538.061C535.99 532.957 538.067 528.119 538.628 523.03C539.159 518.048 538.218 513.02 535.922 508.568C535.027 506.839 533.906 505.14 533.701 503.206C533.496 501.272 534.611 499.505 536.551 499.308C538.067 497.625 538.188 495.327 537.741 493.052C537.503 491.864 537.148 490.703 536.68 489.586C535.391 486.416 533.762 482.965 534.868 479.727C535.161 479.14 535.292 478.485 535.247 477.831C535.255 477.791 535.255 477.75 535.247 477.71C534.99 476.86 533.981 476.489 533.458 475.768C532.473 474.426 533.458 472.598 534.065 471.051C534.655 469.389 534.997 467.648 535.081 465.886C535.164 464.908 535.225 463.922 535.331 462.951C535.478 461.638 535.714 460.336 536.036 459.053C537.877 451.789 542.305 445.446 548.489 441.216C551.437 439.229 554.719 437.781 557.729 435.908C560.811 433.829 563.753 431.549 566.536 429.082C573.211 423.521 580.152 418.278 587.358 413.354C595.106 408.059 603.131 403.183 611.4 398.747C613.169 397.792 614.938 396.861 616.706 395.956C618.631 394.945 620.569 393.987 622.52 393.082C628.765 390.102 635.852 391.217 642.758 393.203C645.653 394.03 648.511 395.016 651.27 395.911C653.964 396.787 656.556 397.952 659.001 399.384C665.118 402.979 670.173 408.288 672.273 414.992C672.276 415.035 672.276 415.078 672.273 415.121C673.607 419.322 673.69 423.827 673.569 428.248Z" fill="#F86D70"/>
<path opacity="0.1" d="M673.569 428.248C673.569 428.931 673.523 429.613 673.493 430.303C673.358 433.631 673.052 436.949 672.576 440.246C671.948 444.745 670.848 449.165 669.294 453.434C668.264 456.241 666.954 458.936 665.383 461.48C663.99 463.739 662.358 465.842 660.517 467.752C655.969 472.484 649.42 473.993 643.083 475.988C640.168 476.833 637.35 477.984 634.678 479.423C634.2 479.689 633.73 479.977 633.275 480.28L625.347 485.536C622.876 487.166 620.352 488.858 618.654 491.277C618.376 491.688 618.123 492.116 617.896 492.559C616.823 494.785 616.039 497.14 615.562 499.566C611.438 516.751 607.307 533.951 604.48 551.393C604.291 552.546 604.109 553.707 603.912 554.867L603.843 555.231C603.809 555.145 603.769 555.061 603.722 554.981C583.439 567.251 562.405 578.323 540.735 587.189L536.028 547.753C535.537 544.548 535.375 541.3 535.543 538.061C535.99 532.957 538.067 528.119 538.628 523.03C539.159 518.048 538.218 513.02 535.922 508.568C535.027 506.839 533.906 505.14 533.701 503.206C533.496 501.272 534.611 499.505 536.551 499.308C538.067 497.625 538.188 495.327 537.741 493.052C537.503 491.864 537.148 490.703 536.68 489.586C535.391 486.416 533.762 482.965 534.868 479.727C535.161 479.14 535.292 478.485 535.247 477.831C535.255 477.791 535.255 477.75 535.247 477.71C534.99 476.86 533.981 476.489 533.458 475.768C532.473 474.426 533.458 472.598 534.065 471.051C534.655 469.389 534.997 467.648 535.081 465.886C535.164 464.908 535.225 463.922 535.331 462.951C535.478 461.638 535.714 460.336 536.036 459.053C537.877 451.789 542.305 445.446 548.489 441.216C551.437 439.229 554.719 437.781 557.729 435.908C560.811 433.829 563.753 431.549 566.536 429.082C573.211 423.521 580.152 418.278 587.358 413.354C595.106 408.059 603.131 403.183 611.4 398.747C613.169 397.792 614.938 396.861 616.706 395.956C618.631 394.945 620.569 393.987 622.52 393.082C628.765 390.102 635.852 391.217 642.758 393.203C645.653 394.03 648.511 395.016 651.27 395.911C653.964 396.787 656.556 397.952 659.001 399.384C665.118 402.979 670.173 408.288 672.273 414.992C672.276 415.035 672.276 415.078 672.273 415.121C673.607 419.322 673.69 423.827 673.569 428.248Z" fill="black"/>
<path d="M601.6 302.631C601.523 302.455 601.412 302.296 601.272 302.164C601.133 302.032 600.968 301.929 600.788 301.863C600.607 301.796 600.416 301.767 600.224 301.776C600.032 301.785 599.844 301.834 599.671 301.917C599.499 302.001 599.345 302.119 599.219 302.264C599.092 302.409 598.997 302.578 598.938 302.761C598.879 302.944 598.857 303.136 598.874 303.328C598.891 303.519 598.947 303.705 599.038 303.874L598.28 304.246L620.883 350.598L624.968 348.604L602.365 302.221L601.6 302.631Z" fill="#3F3D56"/>
<path d="M629.857 254.079C656.648 254.079 678.367 232.349 678.367 205.543C678.367 178.737 656.648 157.007 629.857 157.007C603.066 157.007 581.347 178.737 581.347 205.543C581.347 232.349 603.066 254.079 629.857 254.079Z" fill="#FBBEBE"/>
<path d="M693.883 175.496C693.656 171.638 693.082 167.808 692.17 164.052C689.32 151.789 684.112 139.716 675.146 130.911C674.593 128.759 673.933 126.635 673.167 124.548C673.153 124.497 673.135 124.446 673.114 124.397C670.439 117.047 666.573 110.187 661.669 104.095C658.827 100.561 655.143 97.0724 650.61 96.9359C649.337 96.8904 647.988 97.1104 646.82 96.5264C645.962 95.9711 645.239 95.2298 644.706 94.3575C642.461 91.5195 639.484 89.349 636.096 88.0806C632.708 86.8122 629.039 86.494 625.483 87.1604L625.014 87.259C624.748 87.3121 624.483 87.3728 624.256 87.441C624.028 87.5093 623.619 87.6231 623.301 87.7216C623.649 88.298 623.99 88.882 624.324 89.4735C625.223 91.0762 626.057 92.7143 626.825 94.3878C627.462 95.7832 628.05 97.2014 628.591 98.6423C620.83 99.5296 614.508 105.043 608.732 110.291L595.134 122.637C595.11 122.658 595.087 122.681 595.066 122.706L594.672 123.085C594.573 123.183 594.475 123.282 594.384 123.388C594.347 123.42 594.314 123.455 594.285 123.494C594.172 123.616 594.066 123.745 593.96 123.874C593.77 124.112 593.601 124.366 593.452 124.632C593.377 124.746 593.312 124.865 593.255 124.988C593.234 125.025 593.216 125.063 593.202 125.102C593.152 125.206 593.109 125.312 593.073 125.421C593.069 125.436 593.069 125.451 593.073 125.466C593.052 125.528 593.034 125.592 593.02 125.656C592.865 126.189 592.911 126.761 593.148 127.263L602.115 127.362H603.169C603.214 128.56 603.252 129.766 603.298 130.964C601.875 132.03 600.509 133.169 599.205 134.377C597.783 135.694 596.448 137.102 595.21 138.594C587.123 148.369 582.901 160.996 582.476 173.707C582.476 174.101 582.476 174.465 582.476 174.874C582.476 176.035 582.476 177.195 582.476 178.348C582.476 179.106 582.545 179.865 582.605 180.623C582.609 181.611 582.87 182.581 583.363 183.436C583.428 183.532 583.499 183.623 583.575 183.71C584.03 184.203 584.576 184.605 585.182 184.893L585.834 185.211C586.16 185.37 586.471 185.522 586.774 185.696C589.632 187.312 591.322 190.429 593.922 192.431C594.073 192.545 594.225 192.658 594.376 192.757L594.717 192.984L594.93 193.121L595.218 193.288C595.407 193.402 595.601 193.506 595.801 193.599L596.165 193.781H596.226C596.529 193.917 596.832 194.046 597.143 194.16L597.575 194.312L597.704 194.357C597.825 194.395 597.954 194.441 598.083 194.471C598.341 194.547 598.593 194.615 598.841 194.676L599.599 194.842C599.894 194.896 600.198 194.949 600.501 194.987L600.948 195.047L601.403 195.093C602.125 195.158 602.853 195.196 603.586 195.207C605.885 195.192 608.181 195.033 610.461 194.729L629.804 192.454C634.193 191.946 638.672 191.437 643 192.332C646.669 193.091 650.049 194.835 653.612 196.071C654.415 196.352 655.219 196.61 656.03 196.829C656.325 196.913 656.628 197.004 656.932 197.08L657.348 197.186L658.319 197.421C658.667 197.504 659.016 197.588 659.365 197.656C659.857 197.762 660.342 197.853 660.835 197.944C661.169 198.013 661.51 198.066 661.851 198.126H661.919L662.889 198.278H663.124L663.844 198.377C664.193 198.43 664.542 198.475 664.898 198.513C665.671 198.609 666.444 198.693 667.217 198.763C668.468 198.885 669.726 198.976 671.007 199.051L672.265 199.127L673.524 199.188L677.313 199.355H677.48H678.011C679.586 199.465 681.169 199.383 682.725 199.112C682.998 199.059 683.263 198.998 683.529 198.923C683.794 198.847 684.014 198.771 684.287 198.68C687.129 197.588 689.206 195.078 690.646 192.393C690.949 191.824 691.23 191.255 691.487 190.671C691.745 190.087 691.98 189.496 692.192 188.904C692.458 188.146 692.685 187.426 692.882 186.667C692.943 186.462 692.996 186.258 693.041 186.045C693.087 185.833 693.193 185.416 693.253 185.097C693.443 184.225 693.587 183.345 693.693 182.458C693.693 182.178 693.761 181.889 693.792 181.609C693.86 180.85 693.913 180.145 693.943 179.402C693.943 178.841 693.943 178.272 693.943 177.703C693.936 177.089 693.883 176.277 693.883 175.496ZM674.448 130.221C673.834 129.645 673.205 129.091 672.568 128.568C673.277 129.015 673.909 129.573 674.441 130.221H674.448Z" fill="#464353"/>
<path d="M536.756 202.874C531.048 202.168 525.386 199.666 519.754 200.894C516.23 201.653 513.198 203.844 510.378 206.097C499.885 214.512 490.963 224.717 484.024 236.242C482.847 237.965 482.02 239.903 481.591 241.945C481.227 244.311 481.871 246.716 482.637 248.983C487.821 264.31 498.91 277.111 503.958 292.484C509.264 308.652 507.422 326.322 503.511 342.885C498.663 363.333 490.784 382.939 480.135 401.053C478.69 403.746 476.879 406.227 474.754 408.424C471.995 411.079 468.288 412.975 466.651 416.448C465.893 417.965 465.673 419.694 465.135 421.317C463.619 425.867 459.951 429.765 459.594 434.566C459.329 438.229 461.065 441.694 462.118 445.183C463.895 451.176 463.707 457.581 461.58 463.46C457.737 474.001 447.687 483.587 450.605 494.424C457.116 492.551 464.332 490.117 467.402 484.073C468.485 481.934 469.024 479.386 470.85 477.823C474.496 474.722 480.704 477.528 484.577 474.676C487.503 472.507 487.609 468.063 486.305 464.65C485.002 461.238 482.758 458.235 481.757 454.723C480.014 448.391 482.803 441.694 482.288 435.15C482.045 432.116 481.113 429.211 481.045 426.193C480.916 420.331 484.16 414.817 488.473 410.836C492.786 406.855 498.114 404.215 503.36 401.614L523.188 391.755C530.381 388.191 538.264 383.845 540.621 376.171C541.516 373.296 541.523 370.232 541.569 367.229C542.243 321.34 553.734 276.376 565.157 231.927C566.93 225.041 568.734 218.125 571.372 211.512C574.01 204.899 579.172 199.59 581.802 193.447C566.544 191.657 552.605 204.861 536.756 202.874Z" fill="#464353"/>
<path d="M646.062 490.761C647.813 501.379 648.882 512.223 649.716 523.015C636.072 534.33 621.383 544.174 606.458 553.305C605.61 553.828 604.753 554.344 603.897 554.821L603.828 555.185C603.794 555.099 603.754 555.015 603.707 554.935C602.549 552.432 600.524 550.433 598.007 549.308C592.413 537.553 586.825 525.798 581.241 514.043C578.209 507.696 575.177 501.288 573.661 494.439C573.661 494.295 573.593 494.144 573.57 494C572.418 488.691 572.153 483.177 571.387 477.801C570.999 474.721 570.306 471.688 569.318 468.746C568.408 466.129 567.158 463.589 566.051 461.033C564.687 457.878 563.542 454.685 563.489 451.28C563.489 450.196 563.557 449.005 563.027 448.095C562.46 447.311 561.759 446.634 560.958 446.093C559.957 445.205 559.198 444.078 558.753 442.816C558.307 441.554 558.19 440.2 558.411 438.881C553.863 439.116 551.301 444.007 549.474 448.156C547.814 452.213 545.633 456.037 542.986 459.531C541.057 462.028 538.604 464.07 535.801 465.515C535.55 465.636 535.3 465.758 535.043 465.864C528.714 468.655 521.323 467.669 514.464 466.41C508.468 465.31 502.268 463.945 497.447 460.214L496.932 459.804C495.505 458.618 494.232 457.257 493.142 455.755C489.102 450.234 487.313 442.961 486.32 436.037C486.229 435.385 486.138 434.732 486.055 434.08C485.366 429.188 485.175 424.238 485.487 419.307C485.578 418.094 485.706 416.88 485.866 415.674C485.972 414.916 486.085 414.097 486.214 413.308C486.211 413.286 486.211 413.263 486.214 413.24C486.411 411.989 486.624 410.73 486.836 409.448C487.594 405.148 488.352 400.734 490.626 397.033C492.122 394.731 494.01 392.708 496.204 391.057C497.023 390.413 497.864 389.798 498.713 389.207C500.093 388.251 501.51 387.341 502.95 386.484C506.573 384.314 510.377 382.462 514.32 380.948C515.26 380.584 516.215 380.243 517.17 379.917C520.882 378.596 524.878 378.279 528.752 378.999C532.184 379.496 535.653 379.699 539.121 379.606C548.012 379.431 556.94 377.733 565.816 376.633C578.141 375.116 591.383 374.934 602.131 381.183C602.646 381.479 603.146 381.79 603.646 382.116C608.952 385.589 613.227 390.458 616.676 395.896C617.434 397.041 618.093 398.216 618.745 399.407C620.248 402.14 621.606 404.95 622.815 407.825C623.531 409.237 623.917 410.793 623.945 412.375C623.927 412.676 623.887 412.975 623.824 413.27C623.619 414.347 623.21 415.394 623.066 416.486C622.588 420.619 626.097 424.07 627.409 428.006C628.258 430.569 628.167 433.314 628.644 436.014C629.334 439.806 631.191 443.219 632.859 446.631C635.494 452.125 637.748 457.793 639.605 463.596C640.923 467.638 642.053 471.741 643.046 475.882C643.369 477.212 643.675 478.544 643.963 479.879C644.789 483.549 645.464 487.144 646.062 490.761Z" fill="#F86D70"/>
<path d="M726.877 378.453V383.762L725.899 383.747L724.808 383.732L712.62 383.58L682.589 383.186L674.16 383.08L671.977 383.049L659.327 382.89L641.499 382.655L603.677 382.162L538.044 381.313L514.358 381.009L504.853 380.888L496.106 380.774L490.656 380.698L485.494 380.63L447.224 380.137L436.613 380.001L434.301 379.97L432.8 376.095L421.893 347.951L419.9 342.81L421.415 336.743L428.237 341.293L432.436 341.816L501.571 350.416L514.547 352.032L542.061 355.459L569.015 358.811L579.581 360.123L642.106 367.904L659.577 370.081L674.039 371.878L725.46 378.279L726.877 378.453Z" fill="#3F3D56"/>
<path d="M421.416 336.743L435.059 372.386L726.877 378.453V339.776L421.416 336.743Z" fill="#504F60"/>
<path d="M436.575 376.178L438.849 593.833L449.46 592.316L447.186 376.178H436.575Z" fill="#3F3D56"/>
<path d="M725.899 383.739H724.808C723.041 397.309 720.117 410.703 716.068 423.774L712.62 383.58L712.476 381.866L725.225 380.395L725.649 380.349L725.899 383.739Z" fill="#3F3D56"/>
<path d="M684.431 357.977L573.388 360.252L538.901 348.877L631.373 343.568L684.431 357.977Z" fill="white"/>
<path d="M545.139 313.748C543.961 314.2 542.918 314.944 542.107 315.91C541.472 316.956 541.086 318.134 540.978 319.353L539.113 330.478C538.829 331.496 538.879 332.578 539.257 333.565C539.742 334.498 541.152 334.983 541.857 334.209C541.766 336.386 541.955 338.707 543.221 340.481C544.487 342.256 547.14 343.189 548.929 341.952C549.209 342.41 549.586 342.801 550.032 343.098C550.479 343.395 550.984 343.592 551.514 343.674C552.044 343.756 552.586 343.722 553.101 343.574C553.617 343.426 554.094 343.168 554.5 342.817C553.423 343.181 553.348 344.827 554.113 345.661C554.97 346.418 556.063 346.855 557.206 346.897C570.525 348.775 584.105 347.066 596.544 341.945C597.719 341.459 594.627 326.967 594.316 325.48C593.558 321.984 593.179 317.715 590.23 315.364C583.181 309.736 570.66 308.629 562.072 309.297C556.204 309.741 550.467 311.249 545.139 313.748Z" fill="#FBBEBE"/>
<path opacity="0.1" d="M658.122 315.432C630.706 315.955 602.722 316.403 576.557 308.19C579.056 317.88 578.883 328.068 576.056 337.668L704.244 348.285C709.679 348.732 732.213 351.281 737.511 349.999C742.809 348.717 693.056 332.321 695.065 327.248C700.591 313.271 719.1 305.08 705.768 304.557C688.941 303.89 675.077 315.114 658.122 315.432Z" fill="black"/>
<path d="M658.88 316.949C631.464 317.472 603.48 317.919 577.315 309.706C579.814 319.397 579.641 329.584 576.814 339.184L705.002 349.802C710.437 350.249 732.971 352.835 738.269 351.516C743.567 350.196 742.324 343.697 744.333 338.623C749.859 324.646 719.858 306.597 706.526 306.074C689.699 305.406 675.835 316.63 658.88 316.949Z" fill="#464353"/>
<path d="M615.289 319.057C616.466 319.508 617.51 320.252 618.321 321.218C618.954 322.266 619.343 323.443 619.458 324.661L621.322 335.787C621.603 336.805 621.552 337.886 621.178 338.873C620.693 339.806 619.276 340.291 618.578 339.518C618.662 341.694 618.48 344.015 617.214 345.79C615.948 347.564 613.295 348.497 611.499 347.261C611.218 347.718 610.842 348.109 610.395 348.406C609.949 348.704 609.443 348.9 608.913 348.982C608.383 349.065 607.842 349.031 607.326 348.883C606.811 348.735 606.334 348.476 605.928 348.126C607.004 348.49 607.087 350.135 606.322 350.969C605.462 351.727 604.367 352.163 603.222 352.206C589.905 354.084 576.328 352.375 563.891 347.253C562.716 346.768 565.801 332.275 566.119 330.789C566.877 327.293 567.256 323.023 570.205 320.672C577.246 315.045 589.775 313.938 598.363 314.605C604.228 315.05 609.963 316.559 615.289 319.057Z" fill="#FBBEBE"/>
<path d="M434.134 294.903C431.618 298.149 429.094 301.463 427.472 305.247C424.372 312.467 424.826 320.642 425.342 328.484C425.486 330.759 425.668 333.08 426.858 334.968C427.887 336.394 429.244 337.552 430.814 338.343C437.378 342.074 445.064 343.189 452.568 344.023C464.059 345.297 475.59 346.073 487.162 346.351C515.828 347.049 544.934 344.705 572.858 351.205C569.401 345.949 569.409 338.995 571.342 333.004C573.275 327.012 576.996 321.795 580.642 316.661C567.863 312.611 554.159 318.936 540.773 318.306C527.031 317.662 514.312 309.714 500.555 309.722C497.599 309.722 494.59 310.093 491.717 309.38C488.844 308.667 486.063 306.498 485.797 303.548C489.466 304.375 492.945 301.235 494.461 297.792C495.977 294.349 496.25 290.459 497.72 286.993C501.381 278.37 511.273 274.374 517.427 267.275C518.398 266.153 519.315 264.826 519.284 263.339C519.14 262.08 518.61 260.896 517.769 259.949C512.652 253.124 504.944 249.332 498.539 244.023C496.31 242.173 491.816 235.196 489.314 234.551C484.676 233.36 480.742 240.065 477.725 243.333C462.495 259.891 447.965 277.081 434.134 294.903Z" fill="#464353"/>
<path opacity="0.07" d="M586.547 292.977C588.468 294.402 590.175 296.095 591.617 298.005C592.336 298.964 592.848 300.061 593.12 301.228C593.393 302.395 593.421 303.606 593.202 304.785C592.966 302.587 593.456 300.372 594.596 298.478C595.736 296.585 597.464 295.116 599.515 294.296L586.547 292.977Z" fill="black"/>
<g opacity="0.1">
<path opacity="0.1" d="M628.584 94.0993C627.692 91.729 626.664 89.4121 625.506 87.1602C624.757 87.3041 624.018 87.4941 623.293 87.7289C624.593 89.8901 625.765 92.1261 626.802 94.4254C627.386 94.2737 627.977 94.1676 628.584 94.0993Z" fill="black"/>
<path opacity="0.1" d="M672.561 124.002C672.766 124.169 672.963 124.358 673.16 124.533C673.145 124.484 673.128 124.435 673.107 124.389C672.935 124.262 672.753 124.133 672.561 124.002Z" fill="black"/>
<path opacity="0.1" d="M602.1 127.339C602.494 127.028 602.858 126.702 603.283 126.399L603.161 122.796L595.066 122.713C593.755 123.919 592.36 125.648 593.133 127.263L602.1 127.339Z" fill="black"/>
<path opacity="0.1" d="M690.601 187.979C689.16 190.663 687.084 193.181 684.241 194.266C682.051 195.1 679.64 195.024 677.298 194.918C669.309 194.592 661.184 194.235 653.634 191.589C650.102 190.345 646.722 188.608 643.023 187.842C638.695 186.947 634.215 187.455 629.827 187.971L610.483 190.246C604.776 190.914 598.416 191.414 593.861 187.91C591.254 185.908 589.571 182.791 586.713 181.184C585.508 180.501 584.076 180.061 583.295 178.909C582.802 178.053 582.541 177.083 582.537 176.095C582.476 175.299 582.438 174.502 582.408 173.706C582.326 176.02 582.369 178.336 582.537 180.645C582.541 181.633 582.802 182.603 583.295 183.459C584.053 184.604 585.508 185.044 586.713 185.734C589.571 187.342 591.261 190.459 593.861 192.461C598.409 195.964 604.776 195.494 610.483 194.797L629.827 192.521C634.215 192.006 638.695 191.498 643.023 192.392C646.691 193.151 650.072 194.895 653.634 196.139C661.214 198.786 669.309 199.172 677.298 199.468C679.64 199.567 682.051 199.65 684.241 198.816C687.084 197.731 689.16 195.214 690.601 192.529C693.39 187.334 694.171 181.441 693.875 175.503C693.713 179.852 692.595 184.111 690.601 187.979Z" fill="black"/>
</g>
<path opacity="0.1" d="M628.364 98.9761L638.975 108.835C638.975 108.835 629.88 105.043 628.364 98.9761Z" fill="black"/>
</g>
<defs>
<clipPath id="clip0">
<rect width="745" height="609" fill="white"/>
</clipPath>
</defs>
</svg>
