<svg width="100" height="100" viewBox="0 0 100 100" fill="none" xmlns="http://www.w3.org/2000/svg">
<path d="M50.4037 23.2638C47.5388 23.2203 44.6202 23.6359 41.7451 24.5763C32.0683 27.7414 25.4487 35.9381 23.8304 45.3177L13.7865 48.6028C14.2543 34.6403 22.8249 21.7564 36.3068 16.2702L44.744 13.1562L50.4037 23.2638Z" fill="#0098C7"/>
<path d="M23.4506 49.4095C23.4068 52.2738 23.8214 55.1932 24.7617 58.0681C27.9268 67.7451 36.124 74.3636 45.5045 75.9831L48.7895 86.0263C34.8272 85.5584 21.944 76.9878 16.4567 63.5068L0 57.0797L23.4506 49.4095Z" fill="#0098C7"/>
<path d="M41.4108 53.7669C57.5569 45.8333 61.0743 44.4155 73.7249 37.882C69.1886 29.2097 63.8758 25.2637 54.4956 23.6438L48.2862 13.6008C64.2582 13.5198 78.0554 22.6385 83.5436 36.1197L100 42.5474L41.4108 53.7669Z" fill="#0098C7"/>
<path d="M49.0508 75.6279C51.9157 75.6714 54.8343 75.2558 57.7094 74.3154C64.2549 72.1745 69.4017 67.7314 72.548 62.1773L81.6148 65.7538C77.7705 73.1732 71.3732 79.2742 63.1477 82.6214L56.7212 99.0791L49.0508 75.6279Z" fill="#0098C7"/>
<path d="M65.0394 40.4886L46.5729 30.062L31.3495 44.8163L42.7156 0L65.0394 40.4886Z" fill="#E70E0E"/>
</svg>
