<svg width="1496" height="460" viewBox="0 0 1496 460" fill="none" xmlns="http://www.w3.org/2000/svg">
<path d="M233.958 107.984C220.66 107.783 207.113 109.712 193.767 114.077C148.851 128.768 118.125 166.814 110.613 210.351L63.9926 225.6C66.164 160.79 105.946 100.987 168.525 75.5225L207.687 61.0684L233.958 107.984Z" fill="#0098C7"/>
<path d="M108.85 229.344C108.647 242.64 110.571 256.191 114.936 269.535C129.627 314.452 167.676 345.173 211.218 352.691L226.465 399.308C161.657 397.136 101.857 357.354 76.3867 294.779L0 264.947L108.85 229.344Z" fill="#0098C7"/>
<path d="M192.216 249.57C267.161 212.745 283.487 206.164 342.207 175.837C321.151 135.583 296.491 117.267 252.951 109.748L224.129 63.1317C298.266 62.7559 362.308 105.082 387.783 167.657L464.168 197.493L192.216 249.57Z" fill="#0098C7"/>
<path d="M227.678 351.042C240.976 351.244 254.523 349.314 267.869 344.949C298.251 335.012 322.141 314.389 336.745 288.608L378.83 305.209C360.986 339.648 331.292 367.967 293.111 383.503L263.281 459.895L227.678 351.042Z" fill="#0098C7"/>
<path d="M1206.39 416.428L1076.19 319.132L946.058 416.428L1076.22 86.8359L1206.39 416.428Z" fill="#E70E0E"/>
<path d="M301.892 187.935L216.177 139.538L145.515 208.023L198.272 0L301.892 187.935Z" fill="#E70E0E"/>
<path d="M543.156 134.491V232.886C530.45 212.686 509.598 201.282 481.578 201.282C432.706 201.282 399.147 236.796 399.147 288.926C399.147 341.708 432.38 377.873 482.229 377.873C509.923 377.873 530.775 366.795 543.156 346.595V376.244H580.625V134.491H543.156ZM490.049 346.595C458.445 346.595 436.941 323.136 436.616 290.229C436.941 256.996 458.771 233.212 490.049 233.212C521.327 233.212 543.156 256.67 543.156 290.229C543.156 323.136 521.327 346.595 490.049 346.595ZM757.424 202.911V288.274C757.424 318.575 739.83 341.708 709.855 342.359C684.768 342.359 669.454 326.394 669.454 300.329V202.911H631.986V310.755C631.986 352.134 655.77 377.547 695.519 377.547C723.865 377.221 745.695 366.469 757.424 342.359V376.244H794.892V202.911H757.424ZM972.564 254.064L993.091 229.954C977.126 211.708 952.69 201.608 921.412 201.608C869.933 201.608 834.094 237.448 834.094 289.903C834.094 342.033 869.933 377.547 921.412 377.547C954.319 377.547 979.406 365.818 995.045 345.291L974.193 324.439C962.464 338.124 944.87 345.291 923.041 345.291C893.066 345.291 871.563 322.81 871.563 289.903C871.563 256.996 893.066 234.515 923.041 234.515C943.893 234.189 960.509 241.683 972.564 254.064Z" fill="black"/>
<path d="M1181.45 134.491V376.244H1218.92V134.491H1181.45ZM1294.48 130.907C1282.1 130.907 1272.65 140.355 1272.65 153.388C1272.65 166.095 1282.1 175.543 1294.48 175.543C1306.86 175.543 1316.31 166.095 1316.31 153.388C1316.31 140.355 1306.86 130.907 1294.48 130.907ZM1275.91 202.911V376.244H1313.05V202.911H1275.91ZM1467.22 246.57L1480.9 218.876C1465.27 207.799 1442.13 201.282 1420.3 201.282C1387.07 201.282 1356.44 216.27 1356.44 251.457C1356.12 314.013 1447.35 294.139 1447.35 329.652C1447.35 342.685 1434.97 348.224 1419 348.224C1400.1 348.224 1375.99 340.078 1361.01 326.72L1347.65 353.437C1364.92 369.076 1391.96 377.547 1417.37 377.547C1452.23 377.547 1483.84 361.582 1483.84 326.069C1484.16 263.187 1391.96 280.455 1391.96 248.525C1391.96 236.144 1402.71 231.257 1417.37 231.257C1432.68 231.257 1451.91 237.122 1467.22 246.57Z" fill="black"/>
</svg>
