<svg width="31" height="25" viewBox="0 0 31 25" fill="none" xmlns="http://www.w3.org/2000/svg">
<path d="M29.1825 0.00291229C26.2331 0.169693 20.371 0.776753 16.7521 2.98405C16.5024 3.13635 16.3609 3.40717 16.3609 3.69032V23.2037C16.3609 23.8231 17.0406 24.2145 17.6138 23.9271C21.3371 22.0598 26.7218 21.5503 29.3843 21.4109C30.2933 21.3632 31 20.6371 31 19.7667V1.64927C31.0005 0.69953 30.1739 -0.05286 29.1825 0.00291229ZM14.2479 2.98405C10.6295 0.776753 4.76741 0.170229 1.81805 0.00291229C0.826681 -0.05286 0 0.69953 0 1.64927V19.7672C0 20.6381 0.706662 21.3642 1.61569 21.4114C4.27926 21.5509 9.66668 22.0609 13.39 23.9292C13.9615 24.2161 14.6391 23.8252 14.6391 23.2074V3.68067C14.6391 3.39698 14.4981 3.13689 14.2479 2.98405Z" fill="#004257"/>
</svg>
