<svg width="753" height="566" viewBox="0 0 753 566" fill="none" xmlns="http://www.w3.org/2000/svg">
<g clip-path="url(#clip0)">
<path opacity="0.1" d="M740.658 252.037C740.523 252.84 740.388 253.643 740.238 254.446C735.418 281.792 727.548 308.156 715.845 332.361C715.461 333.164 715.07 333.967 714.672 334.77C707.162 350.033 697.94 364.376 687.186 377.517C681.356 384.608 675 391.341 667.443 396.202C656.85 403.013 644.465 405.781 632.293 408.047C619.645 410.406 606.833 412.349 594.05 414.5C589.519 415.245 585.016 416.027 580.542 416.844C568.193 419.096 555.936 421.698 543.97 425.147C529.175 429.449 514.821 434.991 501.313 442.842C500.232 443.464 499.163 444.102 498.106 444.757C497.047 445.402 495.973 446.062 494.942 446.736C493.912 447.41 492.874 448.076 491.85 448.757L490.272 449.833C489.753 450.177 489.241 450.55 488.729 450.894C487.207 451.941 485.707 453.045 484.207 454.106L484.15 454.149C483.162 454.866 482.181 455.583 481.2 456.3C475.661 460.437 470.244 464.768 464.848 469.113L461.442 471.859C459.684 473.264 457.925 474.667 456.167 476.068C455.136 476.892 454.091 477.71 453.053 478.527C452.299 479.122 451.553 479.717 450.785 480.305C446.938 483.295 443.042 486.22 439.068 489.017C438.122 489.683 437.163 490.35 436.224 491.003C428.269 496.49 419.807 501.192 410.957 505.041L410.843 505.091C406.484 506.965 401.998 508.525 397.42 509.759C394.797 510.476 392.173 511.043 389.514 511.487C382.431 512.723 375.2 512.848 368.079 511.86C354.08 509.859 340.963 503.256 326.999 501.048C298.191 496.538 270.215 511.086 243.106 522.507C236.47 525.308 229.761 527.937 222.979 530.394C218.485 532.029 213.971 533.585 209.435 535.062C181.801 544.076 153.326 550.219 124.454 553.395C112.666 554.693 100.373 555.31 88.3724 554.377C83.8405 554.042 79.3307 553.45 74.8642 552.607C59.6709 549.739 45.4873 543.651 34.0621 532.531C24.5708 523.432 17.8735 511.537 12.7688 499.126C10.7165 494.141 8.90832 489.04 7.3442 483.826C4.88571 475.652 3.03913 467.305 1.82004 458.853C1.54277 456.946 1.29393 455.031 1.10908 453.117C0.739381 449.833 0.464473 446.535 0.284363 443.222C-0.711067 425.617 0.993983 407.963 5.3393 390.882C10.1809 371.961 18.2575 353.842 21.8123 334.742C21.9616 333.939 22.0966 333.135 22.2317 332.332C22.7057 329.464 23.0659 326.544 23.3124 323.571C25.104 300.211 18.1721 277.346 12.6977 254.446C12.5058 253.643 12.3138 252.84 12.129 252.037C11.5365 249.498 10.9748 246.958 10.444 244.415C5.37484 220.195 3.98847 194.276 8.48885 170.106C8.63104 169.303 8.79457 168.493 8.95809 167.697C11.9939 152.726 17.3545 138.487 25.5661 125.803C33.991 112.783 45.0536 101.949 56.8484 92.4272C62.6072 87.7907 68.5627 83.4529 74.7149 79.4138C79.137 76.5172 83.6398 73.7759 88.2231 71.1899C125.257 50.3972 167.509 40.2374 209.286 42.5103C211.499 42.625 213.708 42.778 215.912 42.9692C218.225 43.1699 220.531 43.4089 222.829 43.6862C249.725 46.8194 275.895 54.5844 301.91 63.0808C310.626 65.9487 319.321 68.8167 328.016 71.6847C331.884 72.9561 335.749 74.2109 339.612 75.4489C358.559 81.4788 377.819 86.9207 397.256 91.0219C401.764 91.9779 406.267 92.8502 410.765 93.6389C426.402 96.464 442.227 98.1081 458.108 98.5575C464.269 98.7104 470.431 98.6459 476.593 98.3639C479.707 98.2205 482.823 98.0102 485.942 97.733C518.155 94.951 549.217 85.623 580.407 76.8613C584.915 75.5923 589.429 74.3304 593.915 73.1115C599.845 71.5054 605.781 69.9495 611.739 68.5156C648.837 59.5317 681.897 64.694 716.385 83.221C724.206 87.4298 732.027 92.5061 736.861 100.364C741.696 108.223 742.869 117.952 743.765 127.316C745.03 140.638 745.897 154.146 746.175 167.711C746.175 168.514 746.175 169.317 746.225 170.12C746.85 197.588 745.194 225.264 740.658 252.037Z" fill="#0098C7"/>
<path opacity="0.1" d="M494.601 332.361H492.177V333.43V334.771H494.921L494.601 332.361ZM467.123 332.361C467.119 332.38 467.119 332.4 467.123 332.419L466.909 334.412V334.591V334.771H487.954V334.627L489.454 332.361H467.123ZM410.85 332.361V254.446H435.023C434.767 254.231 434.504 254.016 434.234 253.815L433.878 253.543C433.729 253.421 433.58 253.306 433.423 253.198C433.267 253.091 432.897 252.818 432.62 252.632C432.342 252.446 432.172 252.324 431.909 252.173L431.745 252.066H431.71H410.85V247.8L410.289 248.072L409.691 248.409H409.649L409.521 248.488L409.151 248.732C409.023 248.81 408.895 248.889 408.774 248.975C408.404 249.226 408.063 249.499 407.672 249.778L407.317 250.065C407.075 250.252 406.847 250.445 406.606 250.639C405.66 251.42 404.729 252.238 403.762 252.991C403.52 253.184 403.278 253.371 403.051 253.55C402.534 253.932 401.998 254.286 401.444 254.611C401.214 254.755 400.977 254.887 400.733 255.005L400.335 255.192L399.972 255.349C399.118 255.713 398.233 255.996 397.328 256.195V332.361H361.069C361.069 332.448 361.118 332.526 361.14 332.612C361.339 333.329 361.538 334.046 361.73 334.763H397.335V418.286H397.889L398.522 418.329L399.674 418.415L401.537 418.601L402.375 418.702L403.3 418.816H403.435C403.968 418.888 404.508 418.974 405.056 419.06L405.404 419.117L406.186 419.246L407.31 419.447L410.004 419.304L410.374 419.383C410.523 419.383 410.672 419.44 410.829 419.476V334.771H466.86V334.591V334.412L467.073 332.419C467.069 332.4 467.069 332.38 467.073 332.361H410.85ZM494.601 332.361H492.177V333.43V334.771H494.921L494.601 332.361ZM465.608 332.361L465.367 334.771H488.779L490.371 332.361H465.608ZM410.864 332.361V254.446H435.037C434.781 254.231 434.518 254.016 434.248 253.815L433.892 253.543C433.743 253.421 433.594 253.306 433.437 253.198C433.281 253.091 432.911 252.818 432.634 252.632C432.357 252.446 432.186 252.324 431.923 252.173L431.759 252.066H431.71H410.85V247.8L410.289 248.072L409.691 248.409H409.649L409.521 248.488L409.151 248.732C409.023 248.81 408.895 248.889 408.774 248.975C408.404 249.226 408.063 249.499 407.672 249.778L407.317 250.065C407.075 250.252 406.847 250.445 406.606 250.639C405.66 251.42 404.729 252.238 403.762 252.991C403.52 253.184 403.278 253.371 403.051 253.55C402.534 253.932 401.998 254.286 401.444 254.611C401.214 254.755 400.977 254.887 400.733 255.005L400.335 255.192L399.972 255.349C399.118 255.713 398.233 255.996 397.328 256.195V332.361H361.069C361.069 332.448 361.118 332.526 361.14 332.612C361.339 333.329 361.545 334.046 361.737 334.763H397.335V418.279L397.889 418.314L398.522 418.357L399.674 418.443L401.537 418.63L402.375 418.73L403.3 418.845H403.435C403.968 418.917 404.508 419.003 405.056 419.089L405.404 419.146L406.186 419.275L407.31 419.476L410.004 419.333L410.374 419.411C410.523 419.411 410.672 419.469 410.829 419.505V334.771H465.367L465.623 332.361H410.864ZM594.051 170.106H746.36C746.36 169.303 746.36 168.5 746.31 167.697H594.051V73.0975C589.529 74.3163 585.014 75.5782 580.542 76.8473V167.697H414.888L414.469 167.238L415.102 166.521L476.714 98.3284C470.552 98.6152 464.39 98.6797 458.229 98.522L410.85 150.934V93.6249C406.328 92.8362 401.826 91.9639 397.342 91.0079V148.295L328.073 71.6706C319.378 68.8027 310.683 65.8845 301.966 63.0667L396.119 167.238L395.7 167.697H222.886V43.6578C220.583 43.3949 218.277 43.1559 215.969 42.9408C213.765 42.7448 211.556 42.5919 209.342 42.4819V167.697H88.28V71.1903C83.6872 73.7714 79.1845 76.5127 74.7718 79.4142V167.697H8.92969C8.76617 168.493 8.60264 169.303 8.46045 170.106H74.7149V252.037H12.129C12.3139 252.84 12.5058 253.643 12.6978 254.446H74.7433V332.361H22.2104C22.0754 333.165 21.9403 333.968 21.791 334.771H74.7433V552.628C79.2098 553.472 83.7196 554.063 88.2516 554.399V334.771H209.342V535.084C213.883 533.597 218.398 532.041 222.886 530.416V334.771H397.313V509.788C401.892 508.554 406.377 506.994 410.736 505.12L410.85 505.07V334.771H580.5V416.845C584.998 416.027 589.5 415.246 594.008 414.5V334.771H714.637C715.035 333.968 715.426 333.165 715.81 332.361H594.051V254.446H740.245C740.395 253.643 740.53 252.84 740.665 252.037H594.051V170.106ZM88.2871 170.106H209.342V252.037H88.28L88.2871 170.106ZM88.2871 332.361V254.446H209.342V332.361H88.2871ZM222.893 170.106H397.313V252.037H222.886L222.893 170.106ZM222.893 332.361V254.446H397.313V332.361H222.893ZM580.507 332.361H410.85V254.446H580.5L580.507 332.361ZM580.507 252.058H410.85V172.3L413.232 170.106H580.5L580.507 252.058ZM467.13 332.361C467.126 332.38 467.126 332.4 467.13 332.419L466.916 334.412V334.591V334.771H487.961V334.627L489.461 332.361H467.13ZM494.608 332.361H492.184V333.43V334.771H494.928L494.608 332.361ZM410.857 332.361V254.446H435.03C434.774 254.231 434.511 254.016 434.241 253.815L433.885 253.543C433.736 253.421 433.587 253.306 433.43 253.198C433.274 253.091 432.904 252.818 432.627 252.632C432.35 252.446 432.179 252.324 431.916 252.173L431.752 252.066H431.717H410.85V247.8L410.289 248.072L409.691 248.409H409.649L409.521 248.488L409.151 248.732C409.023 248.81 408.895 248.889 408.774 248.975C408.404 249.226 408.063 249.499 407.672 249.778L407.317 250.065C407.075 250.252 406.847 250.445 406.606 250.639C405.66 251.42 404.729 252.238 403.762 252.991C403.52 253.184 403.278 253.371 403.051 253.55C402.534 253.932 401.998 254.286 401.444 254.611C401.214 254.755 400.977 254.887 400.733 255.005L400.335 255.192L399.972 255.349C399.118 255.713 398.233 255.996 397.328 256.195V332.361H361.069C361.069 332.448 361.118 332.526 361.14 332.612C361.339 333.329 361.538 334.046 361.73 334.763H397.335V418.286H397.889L398.522 418.329L399.674 418.415L401.537 418.601L402.375 418.702L403.3 418.816H403.435C403.968 418.888 404.508 418.974 405.056 419.06L405.404 419.117L406.186 419.246L407.31 419.447L410.004 419.304L410.374 419.383C410.523 419.383 410.672 419.44 410.829 419.476V334.771H466.86V334.591V334.412L467.073 332.419C467.069 332.4 467.069 332.38 467.073 332.361H410.857Z" fill="#0098C7"/>
<path opacity="0.1" d="M146.486 113.693H147.567C147.197 113.477 146.886 113.172 146.662 112.806C146.437 112.439 146.306 112.022 146.28 111.592C146.28 109.929 148.299 108.574 150.766 108.574H182.155C184.622 108.574 186.641 109.929 186.641 111.592C186.641 113.249 184.622 114.611 182.155 114.611H181.11C181.478 114.828 181.788 115.133 182.011 115.5C182.234 115.866 182.364 116.282 182.39 116.712C182.39 118.146 180.925 119.321 178.963 119.644H187.999C190.459 119.644 192.478 120.999 192.478 122.663C192.478 124.326 190.459 125.674 187.999 125.674H156.575C154.115 125.674 152.096 124.319 152.096 122.663C152.096 121.229 153.56 120.053 155.523 119.73H146.486C144.026 119.73 142.007 118.375 142.007 116.712C142.007 115.048 144.012 113.693 146.486 113.693Z" fill="#0098C7"/>
<path opacity="0.1" d="M486.695 142.423H487.748C487.377 142.206 487.066 141.9 486.841 141.532C486.617 141.164 486.486 140.746 486.461 140.315C486.461 138.659 488.48 137.304 490.947 137.304H522.336C524.803 137.304 526.822 138.659 526.822 140.315C526.822 141.979 524.803 143.334 522.336 143.334H521.291C521.659 143.552 521.969 143.858 522.192 144.226C522.415 144.594 522.545 145.011 522.57 145.442C522.57 146.876 521.106 148.044 519.144 148.367H528.18C530.64 148.367 532.659 149.729 532.659 151.385C532.659 153.042 530.64 154.404 528.18 154.404H496.798C494.338 154.404 492.319 153.049 492.319 151.385C492.319 149.951 493.784 148.776 495.746 148.46H486.695C484.235 148.46 482.216 147.098 482.216 145.442C482.216 143.785 484.25 142.423 486.695 142.423Z" fill="#0098C7"/>
<path opacity="0.1" d="M98.3331 265.366H99.3853C99.0167 265.147 98.7071 264.841 98.4839 264.473C98.2607 264.106 98.1308 263.688 98.1055 263.258C98.1055 261.602 100.118 260.239 102.585 260.239H133.974C136.441 260.239 138.46 261.602 138.46 263.258C138.46 264.921 136.441 266.276 133.974 266.276H132.928C133.297 266.495 133.607 266.801 133.83 267.169C134.053 267.537 134.183 267.954 134.208 268.384C134.208 269.818 132.744 270.987 130.781 271.31H139.818C142.285 271.31 144.297 272.665 144.297 274.328C144.297 275.992 142.285 277.347 139.818 277.347H108.422C105.962 277.347 103.943 275.984 103.943 274.328C103.943 272.894 105.414 271.718 107.369 271.396H98.3331C95.8731 271.396 93.854 270.041 93.854 268.384C93.854 266.728 95.8731 265.366 98.3331 265.366Z" fill="#0098C7"/>
<path d="M461.357 471.888C459.598 473.293 457.84 474.696 456.082 476.096C455.051 476.921 454.006 477.738 452.968 478.556C452.214 479.151 451.467 479.746 450.7 480.334C446.853 483.324 442.957 486.249 438.983 489.045C438.037 489.712 437.078 490.379 436.139 491.031C428.184 496.519 419.722 501.22 410.872 505.07L410.758 505.12V471.888H461.357Z" fill="#004257"/>
<path d="M540.472 341.28L541.269 316.508C540.792 316.136 540.309 315.791 539.847 315.447C540.043 308.061 539.625 300.672 538.595 293.357C535.382 268.585 514.515 268.047 508.628 273.159C507.848 273.838 506.997 274.429 506.09 274.923C506.624 271.388 507.285 267.846 507.761 264.347C510.335 245.476 506.339 224.246 491.821 212.05C485.743 206.952 478.313 203.819 471.637 199.553C459.679 191.946 450.23 180.71 438.137 173.304C426.043 165.897 409.058 163.122 398.508 172.644C394.42 176.329 391.782 181.442 387.587 184.998C379.767 191.623 367.574 192.06 360.749 199.46C360.407 199.832 360.08 200.212 359.767 200.614C354.08 207.97 355.637 218.403 357.45 227.53C359.632 238.514 358.729 247.319 368.071 250.474C368.107 250.911 368.135 251.348 368.185 251.778C368.945 258.517 371.156 265.006 374.664 270.792C378.171 276.579 382.89 281.522 388.49 285.276L386.976 285.821C382.938 287.255 379.305 288.646 376.98 289.6C368.448 293.106 350.489 297.673 350.489 297.673C350.489 297.673 350.063 302.835 350.141 310.45C344.155 317.01 334.166 328.54 331.229 335.372C326.964 345.339 302.862 373.882 296.442 378.191C290.022 382.5 283.062 387.612 283.062 387.612C283.062 387.612 272.895 393.269 268.082 393.807C264.747 394.18 254.431 392.187 254.431 392.187C254.431 392.187 213.231 341.28 215.904 380.342C218.578 419.404 251.488 420.73 251.488 420.73L284.669 420.193C284.669 420.193 302.599 422.616 310.626 415.891C317.479 410.155 352.999 378.686 364.41 364.411C364.673 364.705 364.936 364.991 365.213 365.271C365.213 365.271 369.756 359.349 370.297 365.271C370.837 371.193 367.346 373.875 369.223 376.026C371.1 378.177 376.717 385.72 376.98 388.681C377.243 391.642 369.493 403.738 382.596 412.915C382.803 413.058 383.023 413.195 383.265 413.331C385.604 418.701 393.04 423.957 393.04 423.957L433.174 423.419L508.899 429.341C508.899 429.341 511.152 427.341 514.202 424.071C518.276 427.843 523.928 431.076 530.298 429.09C530.298 429.09 539.399 418.056 539.669 410.786C539.669 410.786 533.782 395.435 531.137 390.86C528.493 386.286 533.014 376.32 533.014 376.32C533.014 376.32 536.221 366.626 538.098 366.626C539.975 366.626 538.631 360.173 538.631 360.173C537.921 359.118 537.477 357.905 537.337 356.638C537.197 355.371 537.366 354.089 537.828 352.903C539.399 348.823 540.472 341.28 540.472 341.28Z" fill="url(#paint0_linear)"/>
<path d="M495.077 335.702L492.234 339.058L480.745 352.551L465.736 353.469L441.713 354.961C441.713 354.961 409.321 315.598 415.407 307.03C417.618 303.939 417.981 299.86 417.54 296.01C417.483 295.479 417.405 294.948 417.313 294.425C416.584 290.351 415.312 286.396 413.53 282.666L414.327 282.301L414.838 282.064L443.163 269.029L450.173 265.803C450.522 267.751 451.17 269.633 452.093 271.381C452.228 271.653 452.377 271.926 452.534 272.184C462.196 288.316 493.179 278.113 493.179 278.113L495.077 335.702Z" fill="#FABBBB"/>
<path d="M536.96 315.562C536.747 325.327 535.169 329.543 535.169 329.543L495.078 335.702L493.578 325.206L487.641 283.756L493.215 278.135C495.442 278.619 497.749 278.582 499.959 278.025C502.169 277.468 504.223 276.407 505.963 274.923C511.8 269.832 532.51 270.37 535.695 294.999C536.63 301.811 537.054 308.685 536.96 315.562Z" fill="#FABBBB"/>
<path d="M527.469 429.944C527.469 429.944 536.491 418.966 536.761 411.739L527.732 396.474L519.769 387.871L504.896 416.823C504.896 416.823 514.721 433.959 527.469 429.944Z" fill="#E8E8E8"/>
<path opacity="0.1" d="M527.469 429.944C527.469 429.944 536.491 418.966 536.761 411.739L527.732 396.474L519.769 387.871L504.896 416.823C504.896 416.823 514.721 433.959 527.469 429.944Z" fill="black"/>
<path d="M452.967 478.556C452.214 479.151 451.467 479.746 450.699 480.334C446.853 483.324 442.957 486.249 438.983 489.046C438.037 489.712 437.077 490.379 436.139 491.032H397.313H222.886H209.342L142.242 488.608L88.2798 488.149L74.7715 487.432L7.37245 483.847C4.9033 475.668 3.0472 467.313 1.81985 458.853C1.54257 456.946 1.29374 455.032 1.10889 453.117L74.7431 457.233L88.2514 458L209.314 464.811L222.858 465.571L397.285 475.394L410.708 476.154H410.821L452.967 478.556Z" fill="#F5DCDC"/>
<path d="M543.928 425.147C529.132 429.449 514.778 434.991 501.27 442.842C500.196 443.466 499.137 444.104 498.063 444.757C496.99 445.409 495.931 446.062 494.9 446.736C493.869 447.41 492.831 448.076 491.807 448.757L490.229 449.833L488.686 450.894C487.164 451.948 485.664 453.045 484.164 454.106L484.107 454.149C483.119 454.866 482.138 455.583 481.157 456.3C475.618 460.437 470.201 464.768 464.805 469.113C463.667 470.031 462.527 470.946 461.385 471.859L456.124 476.068C455.093 476.892 454.048 477.71 453.01 478.527C452.256 479.122 451.51 479.717 450.742 480.305L410.928 478.391H410.814L397.391 477.76L222.886 469.421L209.342 468.769L88.2798 462.968L74.7716 462.316L1.81986 458.853C1.54258 456.946 1.29375 455.031 1.1089 453.117C0.739197 449.833 0.46429 446.535 0.28418 443.222L74.7645 416.694L88.2727 411.868L100.544 407.495L122.904 408.671L174.583 411.345L209.364 413.188L222.907 413.905L231.56 414.363L233.629 414.478L306.445 418.314L307.213 418.364L339.704 420.071H340.074H340.287L343.536 420.236L354.613 420.823L368.462 421.54L373.027 421.784L373.887 421.834L380.342 422.171L382.184 422.265L388.348 422.594L390.801 422.731H390.879H391.391L397.157 423.039L406.086 423.512H406.129L408.902 423.656H409.2L410.857 423.749L414.924 423.964L418.478 424.15H418.514L422.503 424.358H422.566L425.588 424.523L427.906 424.645L436.132 425.082L437.61 425.161H438.122L438.833 425.204L441.243 425.333L442.324 425.391L450.713 425.828H451.481L463.866 425.721H463.952L511.038 425.333H511.941H512.894H515.695L530.853 425.212H533.114L543.928 425.147Z" fill="#FABBBB"/>
<path d="M226.135 426.129L230.515 449.625L349.587 447.818C349.587 447.818 358.545 450.428 358.346 443.201C358.346 443.201 376.468 425.929 468.26 446.012L433.018 418.099L336.683 423.319L224.977 420.307L226.135 426.129Z" fill="#0098C7"/>
<path d="M228.325 420.508L232.506 446.011C232.506 446.011 334.884 443 350.98 445.811L338.816 422.516C338.816 422.516 276.912 416.694 228.325 420.508Z" fill="white"/>
<path opacity="0.1" d="M228.325 420.508L232.506 446.011C232.506 446.011 334.884 443 350.98 445.811L338.816 422.516C338.816 422.516 276.912 416.694 228.325 420.508Z" fill="black"/>
<path d="M229.854 420.415L233.977 444.133C233.977 444.133 335.054 441.337 350.98 443.947L338.986 422.286C338.986 422.286 277.829 416.866 229.854 420.415Z" fill="white"/>
<path opacity="0.1" d="M231.709 421.146L235.726 443.33C235.726 443.33 334.586 440.713 350.191 443.158L338.46 422.889C338.46 422.889 278.64 417.798 231.709 421.146Z" fill="black"/>
<path d="M232.505 420.336L236.544 442.563C236.544 442.563 335.403 439.946 351.008 442.391L339.249 422.1C339.249 422.1 279.436 417.016 232.505 420.336Z" fill="white"/>
<path d="M162.561 360.016C162.561 360.016 167.737 366.834 160.179 377.137C152.622 387.441 146.38 396.131 148.904 402.555C148.904 402.555 160.279 383.425 169.593 383.196C178.906 382.967 172.778 371.516 162.561 360.016Z" fill="#0098C7"/>
<path opacity="0.1" d="M162.561 360.016C163.016 360.677 163.373 361.402 163.621 362.167C172.678 372.921 177.506 382.959 168.796 383.174C160.684 383.404 150.958 398.031 148.626 401.73C148.707 402.007 148.799 402.287 148.904 402.569C148.904 402.569 160.279 383.44 169.593 383.21C178.906 382.981 172.778 371.516 162.561 360.016Z" fill="black"/>
<path d="M172.181 368.713C172.181 371.107 171.911 373.058 171.584 373.058C171.256 373.058 170.986 371.107 170.986 368.713C170.986 366.318 171.32 367.436 171.648 367.436C171.975 367.436 172.181 366.311 172.181 368.713Z" fill="#FFD037"/>
<path d="M175.479 371.573C173.389 372.728 171.569 373.423 171.413 373.129C171.256 372.835 172.834 371.695 174.91 370.519C176.986 369.344 176.176 370.204 176.332 370.519C176.489 370.835 177.569 370.426 175.479 371.573Z" fill="#FFD037"/>
<path d="M135.239 360.016C135.239 360.016 130.063 366.834 137.628 377.137C145.192 387.441 151.421 396.131 148.904 402.555C148.904 402.555 137.493 383.425 128.208 383.196C118.922 382.967 125.023 371.516 135.239 360.016Z" fill="#0098C7"/>
<path opacity="0.1" d="M135.239 360.016C134.788 360.679 134.431 361.403 134.18 362.167C125.122 372.921 120.295 382.959 129.004 383.174C137.116 383.404 146.849 398.031 149.181 401.73C149.105 402.007 149.013 402.287 148.904 402.569C148.904 402.569 137.493 383.44 128.208 383.21C118.922 382.981 125.023 371.516 135.239 360.016Z" fill="black"/>
<path d="M125.62 368.713C125.62 371.107 125.89 373.058 126.217 373.058C126.544 373.058 126.814 371.107 126.814 368.713C126.814 366.318 126.48 367.436 126.153 367.436C125.826 367.436 125.62 366.311 125.62 368.713Z" fill="#FFD037"/>
<path d="M122.321 371.573C124.411 372.728 126.238 373.423 126.394 373.129C126.551 372.835 124.972 371.695 122.896 370.519C120.82 369.344 121.631 370.204 121.475 370.519C121.318 370.835 120.23 370.426 122.321 371.573Z" fill="#FFD037"/>
<path d="M176.716 393.356L176.461 395.507L176.098 398.511L175.949 399.766L175.586 402.777L175.43 404.032L175.06 407.043L170.922 441.258C170.552 444.312 165.604 446.693 159.632 446.693H138.147C132.175 446.693 127.234 444.312 126.864 441.258L122.719 407.043L122.356 404.032L122.207 402.777L121.837 399.766L121.688 398.511L121.325 395.507L121.062 393.356C120.856 391.628 123.529 390.172 126.914 390.172H170.894C174.271 390.172 176.951 391.628 176.716 393.356Z" fill="#004257"/>
<path d="M176.482 395.485L176.119 398.497H121.688L121.326 395.485H176.482Z" fill="#007194"/>
<path d="M175.97 399.751L175.607 402.763H122.207L121.837 399.751H175.97Z" fill="#007194"/>
<path d="M175.451 404.018L175.088 407.022H122.719L122.356 404.018H175.451Z" fill="#007194"/>
<path d="M242.331 390.588C242.331 390.588 228.524 377.202 229.058 394.603C229.591 412.004 242.331 390.588 242.331 390.588Z" fill="#FABBBB"/>
<path d="M366.315 360.066C366.01 361.414 364.524 363.651 362.206 366.454C350.233 380.995 316.171 411.216 309.495 416.823C301.533 423.52 283.744 421.125 283.744 421.125L250.827 421.663C250.827 421.663 218.172 420.322 215.513 381.511C212.854 342.7 253.742 393.291 253.742 393.291C253.742 393.291 263.98 395.27 267.286 394.897C272.063 394.367 282.152 388.746 282.152 388.746C282.152 388.746 289.055 383.655 295.425 379.374C301.796 375.094 325.691 346.708 329.943 336.8C332.637 330.512 341.318 320.23 347.311 313.562C350.752 309.726 353.305 307.109 353.305 307.109C353.305 307.109 368.171 351.763 366.315 360.066Z" fill="#FABBBB"/>
<path opacity="0.1" d="M366.316 360.066C366.01 361.414 364.524 363.651 362.206 366.454C350.12 354.043 347.596 329.278 347.312 313.533C350.753 309.697 353.305 307.08 353.305 307.08C353.305 307.08 368.171 351.763 366.316 360.066Z" fill="black"/>
<path opacity="0.1" d="M492.227 339.058L480.745 352.552L465.736 353.47L441.713 354.961C441.713 354.961 409.321 315.598 415.407 307.03C417.618 303.94 417.981 299.86 417.54 296.01C417.483 295.479 417.405 294.949 417.313 294.425C416.584 290.351 415.312 286.396 413.53 282.667L414.327 282.301L414.838 282.064C416.103 285.616 416.975 289.297 417.441 293.042C417.519 293.551 417.59 294.081 417.661 294.626C417.91 296.562 418.137 298.713 418.372 301.079C420.22 322.747 433.736 330.899 439.836 333.494C441.797 334.328 443.715 335.264 445.58 336.298C451.449 339.562 458.217 340.796 464.847 339.811C479.906 337.818 492.184 326.783 492.184 326.783L492.248 337.646L492.227 339.058Z" fill="black"/>
<path d="M492.689 423.254C492.689 423.254 393.929 422.982 380.911 413.883C367.894 404.785 375.608 392.732 375.338 389.785C375.067 386.838 369.501 379.346 367.645 377.195C365.789 375.044 369.237 372.377 368.704 366.49C368.171 360.604 363.664 366.49 363.664 366.49C345.072 347.476 349.053 299.287 349.053 299.287C349.053 299.287 366.827 294.741 375.359 291.249C377.669 290.303 381.267 288.955 385.312 287.499L386.812 286.954C397.242 283.19 409.641 278.938 409.641 278.938C409.641 278.938 412.023 277.239 414.419 282.323C415.514 284.66 416.616 288.424 417.498 294.44C417.576 294.949 417.647 295.479 417.718 296.024C417.967 297.96 418.194 300.111 418.429 302.477C420.277 324.145 433.793 332.297 439.893 334.892C441.854 335.727 443.772 336.662 445.637 337.696C451.506 340.96 458.274 342.194 464.904 341.209C479.963 339.216 492.241 328.181 492.241 328.181L492.305 339.044L492.49 371.681L492.689 423.254Z" fill="#E8E8E8"/>
<path d="M488.437 380.952L486.845 391.126C486.845 391.126 447.55 401.027 432.158 403.974C416.765 406.921 383.571 403.171 381.182 409.595C378.793 416.02 391.27 424.86 391.27 424.86L431.084 424.322L506.219 430.216C506.219 430.216 534.892 404.777 525.599 387.103C516.307 369.43 488.437 380.952 488.437 380.952Z" fill="#FABBBB"/>
<path opacity="0.1" d="M407.466 300.627C407.466 300.627 389.407 315.619 392.863 322.854C396.318 330.088 407.466 300.627 407.466 300.627Z" fill="black"/>
<path opacity="0.1" d="M385.163 327.665C385.163 327.665 366.842 359.528 367.908 361.937C368.975 364.346 374.015 372.914 373.745 366.49C373.475 360.066 385.163 327.665 385.163 327.665Z" fill="black"/>
<path opacity="0.1" d="M392.6 333.293C392.6 333.293 388.334 353.104 384.104 361.407C379.873 369.709 392.6 333.293 392.6 333.293Z" fill="black"/>
<path opacity="0.1" d="M452.569 272.206C449.058 278.698 444.057 284.248 437.984 288.392C431.911 292.536 424.942 295.153 417.661 296.024H417.576C406.122 297.381 394.581 294.334 385.255 287.492C395.92 283.606 409.584 278.931 409.584 278.931C409.584 278.931 411.966 277.232 414.362 282.316L450.209 265.825C450.611 268.077 451.411 270.238 452.569 272.206Z" fill="black"/>
<path d="M458.172 248.416C458.185 256.479 456.101 264.405 452.129 271.403C450.231 274.74 447.931 277.827 445.282 280.594C437.891 288.355 428.043 293.265 417.441 294.475H417.348C415.654 294.671 413.949 294.769 412.244 294.769C400.959 294.77 390.069 290.58 381.651 283C373.234 275.42 367.879 264.98 366.607 253.671C366.409 251.936 366.312 250.191 366.316 248.445C366.316 236.16 371.154 224.379 379.768 215.693C388.381 207.007 400.063 202.127 412.244 202.127C424.425 202.127 436.106 207.007 444.72 215.693C453.333 224.379 458.172 236.16 458.172 248.445V248.416Z" fill="#FABBBB"/>
<path opacity="0.1" d="M487.911 336.061L492.177 329.608C492.177 329.608 515.539 301.495 538.389 319.434L537.593 344.07C537.593 344.07 536.527 351.562 534.934 355.542C534.477 356.723 534.31 357.998 534.449 359.258C534.587 360.518 535.027 361.725 535.73 362.776C535.73 362.776 537.06 369.229 535.204 369.229C533.349 369.229 530.156 378.865 530.156 378.865C530.156 378.865 525.642 388.774 528.301 393.327C530.96 397.88 536.797 413.138 536.797 413.138C536.797 413.138 527.504 407.516 524.845 398.145C524.845 398.145 502.28 380.472 484.754 391.692L487.911 336.061Z" fill="black"/>
<path opacity="0.1" d="M536.96 315.562C536.747 325.327 535.169 329.543 535.169 329.543L495.078 335.702L493.578 325.206C498.825 319.685 517.907 302.133 536.96 315.562Z" fill="black"/>
<path d="M487.911 334.627L492.177 328.174C492.177 328.174 515.539 300.061 538.389 318L537.593 342.636C537.593 342.636 536.527 350.128 534.934 354.108C534.477 355.289 534.31 356.564 534.449 357.824C534.587 359.084 535.027 360.291 535.73 361.342C535.73 361.342 537.06 367.795 535.204 367.795C533.349 367.795 530.156 377.431 530.156 377.431C530.156 377.431 525.642 387.34 528.301 391.893C530.96 396.446 536.797 411.704 536.797 411.704C536.797 411.704 527.504 406.082 524.845 396.711C524.845 396.711 502.28 379.037 484.754 390.258L487.911 334.627Z" fill="#E8E8E8"/>
<path opacity="0.1" d="M525.606 316.422C525.606 316.422 487.115 340.255 488.97 361.155C488.97 361.155 510.477 322.847 525.606 316.422Z" fill="black"/>
<path opacity="0.1" d="M492.22 339.065L492.405 371.702C485.124 372.032 478.264 371.079 472.839 366.325C469.064 363.012 466.867 358.438 465.729 353.491C464.883 349.505 464.572 345.422 464.805 341.352C464.801 341.312 464.801 341.271 464.805 341.23C465.253 332.218 467.308 323.205 466.227 314.25C465.146 305.295 459.764 295.845 450.977 293.959C449.242 293.579 447.294 293.443 446.057 292.159C444.692 290.725 444.756 288.496 444.905 286.51L445.161 283.161C445.225 282.301 445.254 281.448 445.254 280.594C445.248 272.982 442.623 265.608 437.825 259.731C433.027 253.854 426.355 249.839 418.948 248.373L418.664 248.323C416.19 247.821 413.616 247.326 411.142 247.9C406.435 248.997 403.392 253.6 399.055 255.786C390.737 259.974 376.866 255.392 368.157 253.951C367.588 253.858 367.048 253.75 366.529 253.628C366.331 251.893 366.234 250.148 366.237 248.401C366.241 241.307 367.86 234.308 370.97 227.945C374.08 221.582 378.598 216.024 384.175 211.701C389.752 207.377 396.24 204.403 403.137 203.009C410.034 201.614 417.157 201.836 423.956 203.657C430.755 205.478 437.048 208.85 442.35 213.513C447.652 218.175 451.821 224.004 454.536 230.548C457.251 237.093 458.438 244.179 458.007 251.26C457.576 258.341 455.538 265.227 452.05 271.388C452.186 271.661 452.335 271.933 452.491 272.191C462.153 288.324 493.137 278.121 493.137 278.121L495 335.688L492.22 339.065Z" fill="black"/>
<path d="M400.726 254.991C405.035 252.797 408.078 248.194 412.813 247.104C415.28 246.53 417.853 247.025 420.342 247.52L420.626 247.577C428.457 249.14 435.448 253.545 440.274 259.958C445.1 266.371 447.425 274.346 446.811 282.373L446.555 285.721C446.398 287.7 446.334 289.944 447.714 291.364C448.944 292.647 450.892 292.798 452.626 293.156C461.414 295.049 466.796 304.449 467.876 313.454C468.957 322.46 466.867 331.501 466.455 340.549C466.042 349.598 467.692 359.586 474.474 365.529C485.139 374.85 501.348 369.545 515.461 368.691C509.219 368.691 504.541 362.195 504.199 355.915C503.858 349.634 506.631 343.654 509.283 337.99C511.935 332.326 514.594 326.231 514.004 319.965C513.193 311.361 506.467 304.47 503.894 296.189C500.893 286.553 503.787 276.207 505.145 266.19C507.697 247.434 503.723 226.318 489.326 214.194C483.297 209.125 475.925 206.006 469.298 201.761C457.425 194.169 448.062 183.034 436.061 175.649C424.06 168.264 407.21 165.525 396.738 174.989C392.685 178.653 390.069 183.736 385.903 187.271C377.762 194.19 364.823 194.319 358.296 202.808C352.679 210.114 354.201 220.489 356 229.559C358.396 241.655 357.045 251.069 369.863 253.22C378.537 254.604 392.401 259.185 400.726 254.991Z" fill="#990909"/>
<path opacity="0.1" d="M506.346 362.912C496.073 364.181 485.892 364.834 478.412 358.295C471.63 352.351 469.959 342.371 470.393 333.315C470.827 324.259 472.903 315.211 471.815 306.213C470.727 297.214 465.352 287.815 456.565 285.922C454.83 285.549 452.889 285.413 451.652 284.129C450.28 282.695 450.337 280.458 450.493 278.479L450.749 275.131C451.364 267.105 449.037 259.131 444.211 252.719C439.385 246.308 432.395 241.904 424.564 240.343L424.28 240.285C421.792 239.791 419.218 239.296 416.751 239.87C412.044 240.967 409.001 245.605 404.665 247.756C396.339 251.951 382.483 247.369 373.759 245.928C360.962 243.813 362.298 234.385 359.895 222.267C358.552 215.499 357.364 207.999 359.184 201.589C358.843 201.955 358.516 202.306 358.203 202.744C352.587 210.05 354.108 220.425 355.907 229.495C358.303 241.59 356.952 251.004 369.771 253.155C378.487 254.589 392.351 259.178 400.676 254.984C404.984 252.79 408.027 248.187 412.762 247.097C415.229 246.523 417.803 247.018 420.291 247.513L420.576 247.57C428.407 249.133 435.398 253.538 440.223 259.951C445.049 266.364 447.375 274.339 446.761 282.366L446.505 285.714C446.348 287.693 446.284 289.937 447.663 291.357C448.893 292.64 450.841 292.791 452.576 293.149C461.364 295.042 466.746 304.442 467.826 313.447C468.907 322.453 466.824 331.494 466.404 340.542C465.985 349.591 467.641 359.578 474.424 365.522C485.088 374.843 501.298 369.537 515.411 368.684C511.579 368.706 508.358 366.254 506.346 362.912Z" fill="black"/>
<path d="M217.81 386.831L261.641 370.341C262.677 369.95 263.824 369.991 264.831 370.454C265.837 370.916 266.62 371.762 267.008 372.807C267.395 373.852 267.355 375.009 266.896 376.024C266.438 377.039 265.598 377.829 264.563 378.22L220.732 394.711L211.333 393.765L217.81 386.831Z" fill="#0081A8"/>
<path opacity="0.1" d="M265.686 371.459C266.073 372.504 266.031 373.662 265.571 374.677C265.111 375.693 264.27 376.482 263.233 376.872L219.374 393.42L212.321 392.703L211.305 393.793L220.704 394.739L264.534 378.248C265.57 377.857 266.409 377.067 266.868 376.052C267.327 375.037 267.367 373.88 266.98 372.835C266.657 371.964 266.057 371.225 265.274 370.734C265.431 370.963 265.569 371.206 265.686 371.459Z" fill="white"/>
<path d="M217.817 386.831L220.732 394.711L213.025 393.929L211.34 393.757L213.644 391.291L217.817 386.831Z" fill="#E75C5C"/>
<path d="M213.637 391.27C213.817 391.405 213.971 391.573 214.092 391.764C214.164 391.879 214.202 392.012 214.202 392.148C214.202 392.284 214.164 392.417 214.092 392.531C213.971 392.658 213.829 392.762 213.672 392.84C213.496 392.958 213.349 393.115 213.24 393.299C213.132 393.483 213.066 393.688 213.047 393.901L211.354 393.736L213.637 391.27Z" fill="#28A1C7"/>
<path d="M355.431 437.157C355.431 437.157 393.396 429.119 457.098 439.308L432.143 420.838L386.741 411.467L354.62 420.071L355.431 437.157Z" fill="white"/>
<path opacity="0.1" d="M355.431 437.157C355.431 437.157 393.396 429.119 457.098 439.308L432.143 420.838L386.741 411.467L354.62 420.071L355.431 437.157Z" fill="black"/>
<path d="M350.98 445.847C350.98 445.847 370.098 393.693 468.289 446.012L433.046 423.14C433.046 423.14 348.62 399.615 338.865 426.725L350.98 445.847Z" fill="white"/>
<path opacity="0.1" d="M350.98 445.811C350.98 445.811 370.098 390.05 468.289 446.815L433.046 422.007C433.046 422.007 348.591 393.872 338.815 423.319L350.98 445.811Z" fill="black"/>
<path d="M350.98 445.832C350.98 445.832 370.098 389.247 468.289 446.012L433.046 421.204C433.046 421.204 348.62 393.872 338.865 423.355L350.98 445.832Z" fill="white"/>
<path opacity="0.1" d="M350.98 445.847C350.98 445.847 370.098 382.959 468.289 446.815L433.018 418.902C433.018 418.902 348.591 390.223 338.837 423.319L350.98 445.847Z" fill="black"/>
<path d="M350.98 445.811C350.98 445.811 370.098 382.156 468.289 446.012L433.018 418.099C433.018 418.099 348.591 389.419 338.837 422.516L350.98 445.811Z" fill="white"/>
<path opacity="0.1" d="M645.56 439.817C645.56 439.817 621.991 465.277 643.206 477.645C643.206 477.645 645.979 481.015 649.939 479.251C649.939 479.251 648.603 478.054 651.283 475.745C652.231 474.917 653.078 473.978 653.807 472.949C654.795 471.56 655.309 469.884 655.271 468.174C655.271 468.174 658.357 458.071 648.553 444.958C648.553 444.958 647.664 440.57 646.91 440.089L645.119 446.205C645.119 446.205 649.619 447.36 651.311 450.816C651.311 450.816 645.382 446.119 644.806 447.102C644.692 447.302 644.003 450.393 644.003 450.393C644.003 450.393 651.823 452.429 654.269 457.849C654.269 457.849 647.948 451.303 643.732 451.561L642.965 456.279C642.965 456.279 651.333 458.028 654.34 464.094C654.34 464.094 647.501 457.476 642.851 457.326L642.716 462.065C642.716 462.065 650.842 463.929 653.323 468.991C653.323 468.991 644.657 462.158 642.758 463.155C642.758 463.155 642.893 467.521 643.469 468.661C643.469 468.661 649.271 470.095 650.451 473.207C650.451 473.207 644.18 469.257 643.64 469.859C643.64 469.859 645.325 475.494 647.671 477.896C647.671 477.896 643.946 474.605 642.78 470.167C642.78 470.167 641.201 472.942 641.6 475.666C641.6 475.666 639.275 473.071 642.389 468.798C642.389 468.798 641.251 464.352 641.536 463.65C641.536 463.65 637.874 467.428 636.936 470.82C636.936 470.82 636.225 466.575 641.528 462.424V457.648C641.528 457.648 636.424 462.388 635.372 465.32C635.372 465.32 635.3 460.875 641.635 456.451L642.346 451.812C642.346 451.812 637.639 455.555 635.77 458.566C635.77 458.566 636.58 454.422 642.595 450.493L643.427 447.453C643.427 447.453 640.043 450.249 639.161 451.138C638.279 452.027 637.945 451.855 637.945 451.855C639.33 449.451 641.348 447.481 643.775 446.162C643.775 446.162 645.951 439.982 645.56 439.817Z" fill="#0098C7"/>
<path opacity="0.1" d="M750.917 25.5391C750.917 25.5391 719.429 39.8789 734.273 59.5173C734.273 59.5173 735.546 63.7117 739.869 63.6256C739.869 63.6256 739.094 61.9981 742.449 60.9082C743.642 60.5152 744.783 59.9784 745.848 59.3093C747.292 58.412 748.407 57.0658 749.026 55.4734C749.026 55.4734 755.737 47.3571 751.706 31.4471C751.706 31.4471 752.566 27.0519 752.055 26.3134L748.059 31.2606C748.059 31.2606 751.77 34.0713 752.012 37.9215C752.012 37.9215 748.343 31.2822 747.433 31.9705C747.248 32.1067 745.436 34.6879 745.436 34.6879C745.436 34.6879 751.834 39.6064 752.055 45.5646C752.055 45.5646 748.727 37.0611 744.732 35.6558L742.222 39.714C742.222 39.714 749.275 44.5823 749.744 51.3507C749.744 51.3507 745.962 42.5891 741.731 40.6389L739.79 44.9408C739.79 44.9408 746.58 49.8236 746.9 55.4591C746.9 55.4591 741.518 45.7797 739.385 45.9661C739.385 45.9661 737.842 50.0387 737.963 51.3221C737.963 51.3221 742.755 54.907 742.67 58.2339C742.67 58.2339 738.404 52.1538 737.693 52.4979C737.693 52.4979 737.089 58.3486 738.34 61.4818C738.34 61.4818 736.157 56.9935 736.783 52.4477C736.783 52.4477 734.259 54.398 733.591 57.0652C733.591 57.0652 732.439 53.7598 736.947 51.0281C736.947 51.0281 737.594 46.4895 738.127 45.9518C738.127 45.9518 733.299 48.0096 731.152 50.7485C731.152 50.7485 732.112 46.5541 738.603 44.7903L740.452 40.4023C740.452 40.4023 733.932 42.7827 731.835 45.0771C731.835 45.0771 733.47 40.9472 741.006 39.3411L743.431 35.3403C743.431 35.3403 737.658 36.9679 734.778 39.0113C734.778 39.0113 737.117 35.5124 744.17 34.2218L746.097 31.741C746.097 31.741 741.902 33.0029 740.729 33.4762C739.556 33.9494 739.307 33.6697 739.307 33.6697C741.517 31.9835 744.148 30.9507 746.907 30.6871C746.907 30.6871 751.173 25.8259 750.917 25.5391Z" fill="#0098C7"/>
<path opacity="0.1" d="M452.05 34.4155C452.05 34.4155 404.743 48.0384 427.743 68.3149C427.743 68.3149 429.783 72.6168 436.331 72.6168C436.331 72.6168 435.108 70.9534 440.17 69.9424C441.913 69.5889 443.621 69.0803 445.275 68.4224C447.225 67.7332 448.885 66.3957 449.981 64.6295C449.981 64.6295 459.935 56.5992 453.401 40.4096C453.401 40.4096 454.588 35.9929 453.792 35.2329L447.877 40.1228C447.877 40.1228 453.565 43.0696 454.041 46.9629C454.041 46.9629 448.304 40.1586 446.931 40.8254C446.654 40.9617 443.974 43.5141 443.974 43.5141C443.974 43.5141 453.842 48.6621 454.29 54.692C454.29 54.692 449.029 46.0093 442.915 44.4821L439.218 48.5116C439.218 48.5116 450.024 53.6237 450.913 60.4782C450.913 60.4782 444.955 51.5229 438.499 49.4365L435.656 53.7384C435.656 53.7384 446.064 58.8577 446.747 64.565C446.747 64.565 438.336 54.6347 435.108 54.7566C435.108 54.7566 432.883 58.8434 433.082 60.1412C433.082 60.1412 440.433 63.9269 440.398 67.2537C440.398 67.2537 433.757 60.9872 432.662 61.317C432.662 61.317 431.909 67.2179 433.885 70.4156C433.885 70.4156 430.459 65.8197 431.283 61.2453C431.283 61.2453 427.522 63.1454 426.577 65.8197C426.577 65.8197 424.742 62.457 431.497 59.8185C431.497 59.8185 432.357 55.2441 433.146 54.7135C433.146 54.7135 425.894 56.6638 422.716 59.374C422.716 59.374 424.053 55.1581 433.836 53.552L436.523 49.164C436.523 49.164 426.712 51.401 423.598 53.6596C423.598 53.6596 425.965 49.5297 437.341 48.0957L440.895 44.1164C440.895 44.1164 432.193 45.6006 427.885 47.5938C427.885 47.5938 431.333 44.1164 441.976 43.0051L444.82 40.553C444.82 40.553 438.499 41.7145 436.736 42.159C434.973 42.6036 434.603 42.3168 434.603 42.3168C438.156 40.5818 442.033 39.624 445.979 39.5062C445.979 39.5062 452.463 34.7167 452.05 34.4155Z" fill="#0098C7"/>
<path opacity="0.1" d="M591.619 566.007C591.619 566.007 615.436 540.776 594.342 528.2C594.342 528.2 591.598 524.802 587.623 526.522C587.623 526.522 588.953 527.734 586.251 530.021C585.296 530.84 584.439 531.769 583.699 532.789C582.695 534.167 582.165 535.839 582.191 537.55C582.191 537.55 578.999 547.623 588.683 560.83C588.683 560.83 589.529 565.226 590.275 565.72L592.131 559.619C592.131 559.619 587.637 558.421 585.981 554.951C585.981 554.951 591.861 559.698 592.444 558.722C592.564 558.522 593.282 555.446 593.282 555.446C593.282 555.446 585.462 553.295 583.087 547.889C583.087 547.889 589.344 554.499 593.567 554.277L594.377 549.567C594.377 549.567 586.031 547.738 583.066 541.68C583.066 541.68 589.841 548.362 594.491 548.563L594.669 543.816C594.669 543.816 586.557 541.837 584.097 536.747C584.097 536.747 592.7 543.673 594.605 542.691C594.605 542.691 594.512 538.331 593.894 537.184C593.894 537.184 588.107 535.65 586.955 532.567C586.955 532.567 593.19 536.582 593.73 535.98C593.73 535.98 592.102 530.33 589.777 527.906C589.777 527.906 593.474 531.233 594.598 535.678C594.598 535.678 596.205 532.918 595.828 530.193C595.828 530.193 598.131 532.818 594.975 537.055C594.975 537.055 596.069 541.515 595.778 542.21C595.778 542.21 599.475 538.468 600.442 535.119C600.442 535.119 601.153 539.371 595.771 543.465L595.7 548.24C595.7 548.24 600.847 543.551 601.928 540.626C601.928 540.626 601.928 545.078 595.579 549.437L594.868 554.069C594.868 554.069 599.61 550.37 601.508 547.38C601.508 547.38 600.655 551.51 594.605 555.381L593.745 558.414C593.745 558.414 597.157 555.654 598.067 554.772C598.977 553.89 599.29 554.055 599.29 554.055C597.884 556.447 595.846 558.398 593.403 559.69C593.403 559.69 591.263 565.835 591.619 566.007Z" fill="#0098C7"/>
<path opacity="0.1" d="M359.327 0.888924C359.327 0.888924 363.386 35.4766 386.45 27.1308C386.45 27.1308 390.794 27.1666 392.017 22.9794C392.017 22.9794 390.239 23.2375 390.225 19.6813C390.209 18.4162 390.044 17.1575 389.734 15.9314C389.325 14.2726 388.389 12.7944 387.068 11.7227C387.068 11.7227 381.409 2.81763 365.121 1.9429C365.121 1.9429 361.225 -0.208071 360.372 0.0643858L363.848 5.39163C363.848 5.39163 367.624 2.66706 371.335 3.59915C371.335 3.59915 363.955 5.13351 364.332 6.209C364.403 6.43127 366.294 8.9479 366.294 8.9479C366.294 8.9479 372.942 4.21576 378.629 5.82899C378.629 5.82899 369.593 6.45995 367.062 9.87999L370.098 13.5223C370.098 13.5223 376.823 8.20224 383.371 9.78679C383.371 9.78679 373.944 10.7906 370.823 14.268L374.363 17.4371C374.363 17.4371 381.018 12.3751 386.45 13.7374C386.45 13.7374 375.672 16.0031 375.202 18.1039C375.202 18.1039 378.594 20.8141 379.845 21.1009C379.845 21.1009 384.708 17.5805 387.794 18.656C387.794 18.656 380.755 20.936 380.862 21.739C380.862 21.739 386.215 24.0764 389.55 23.8183C389.55 23.8183 384.651 24.5353 380.542 22.5994C380.542 22.5994 381.622 25.6036 383.947 27.0591C383.947 27.0591 380.478 27.1666 379.248 22.0402C379.248 22.0402 375.153 20.0469 374.804 19.3801C374.804 19.3801 375.302 24.6357 377.243 27.5251C377.243 27.5251 373.56 25.3742 373.845 18.5699L370.29 15.4654C370.29 15.4654 370.581 22.456 372.117 25.1662C372.117 25.1662 368.704 22.3485 369.444 14.6121L366.394 11.0774C366.394 11.0774 366.187 17.1144 367.254 20.4986C367.254 20.4986 364.645 17.2005 365.555 10.0306L363.784 7.42789C363.784 7.42789 363.72 11.8374 363.784 13.1136C363.848 14.3899 363.543 14.5118 363.543 14.5118C362.608 11.8847 362.416 9.04732 362.988 6.31655C362.988 6.31655 359.682 0.716846 359.327 0.888924Z" fill="#0098C7"/>
<path opacity="0.1" d="M531.706 487.561C531.706 487.561 498.419 478.24 497.353 502.934C497.353 502.934 495.675 506.977 499.052 509.702C499.052 509.702 499.486 507.953 502.756 509.279C503.923 509.745 505.14 510.069 506.382 510.247C508.062 510.491 509.775 510.174 511.259 509.343C511.259 509.343 521.568 507.436 528.564 492.609C528.564 492.609 532.012 489.791 532.119 488.888L525.912 490.114C525.912 490.114 526.979 494.674 524.718 497.786C524.718 497.786 526.14 490.315 524.981 490.257C524.746 490.257 521.717 491.053 521.717 491.053C521.717 491.053 523.538 498.983 519.905 503.679C519.905 503.679 522.748 495.004 520.566 491.347L516.058 492.846C516.058 492.846 518.39 501.134 514.451 506.64C514.451 506.64 517.11 497.47 515.091 493.24L510.868 495.312C510.868 495.312 513.001 503.443 509.681 508.003C509.681 508.003 511.686 497.09 509.93 495.85C509.93 495.85 506.162 498.001 505.429 499.047C505.429 499.047 506.851 504.92 504.662 507.393C504.662 507.393 505.23 499.958 504.455 499.757C504.455 499.757 500.275 503.866 499.251 507.078C499.251 507.078 500.424 502.224 503.787 499.134C503.787 499.134 500.616 499.004 498.405 500.618C498.405 500.618 499.614 497.341 504.804 498.151C504.804 498.151 508.188 495.075 508.934 495.011C508.934 495.011 503.958 493.476 500.531 494.193C500.531 494.193 503.929 491.584 510.036 494.423L514.245 492.272C514.245 492.272 507.719 489.899 504.654 490.307C504.654 490.307 508.529 488.156 515.319 491.806L519.713 490.293C519.713 490.293 514.252 487.819 510.74 487.533C510.74 487.533 514.757 486.35 520.992 489.913L524.049 489.246C524.049 489.246 520.025 487.511 518.824 487.095C517.622 486.679 517.629 486.378 517.629 486.378C520.383 486.505 523.048 487.399 525.329 488.959C525.329 488.959 531.728 487.956 531.706 487.561Z" fill="#0098C7"/>
</g>
<defs>
<linearGradient id="paint0_linear" x1="378.523" y1="429.678" x2="378.523" y2="166.535" gradientUnits="userSpaceOnUse">
<stop stop-color="#808080" stop-opacity="0.25"/>
<stop offset="0.54" stop-color="#808080" stop-opacity="0.12"/>
<stop offset="1" stop-color="#808080" stop-opacity="0.1"/>
</linearGradient>
<clipPath id="clip0">
<rect width="753" height="566" fill="white"/>
</clipPath>
</defs>
</svg>
